<?xml version="1.0" encoding="utf-8"?>
<!-- Generator: Adobe Illustrator 24.1.2, SVG Export Plug-In . SVG Version: 6.00 Build 0)  -->
<svg version="1.1" xmlns="http://www.w3.org/2000/svg" xmlns:xlink="http://www.w3.org/1999/xlink" x="0px" y="0px"
	 viewBox="0 0 1500 1000" style="enable-background:new 0 0 1500 1000;" xml:space="preserve">
<style type="text/css">
	.st0{fill:#F5F5F5;}
	.st1{fill:#ECECEC;}
	.st2{fill:#FFFFFF;}
	.st3{fill:#C4C4C4;}
	.st4{fill:#ECECEC;stroke:#D7D8D8;stroke-width:4;stroke-miterlimit:10;}
	.st5{fill:none;stroke:#D7D8D8;stroke-width:2;stroke-miterlimit:10;}
	.st6{fill:none;stroke:#ECECEC;stroke-width:2;stroke-miterlimit:10;}
	.st7{fill:#1A2E35;}
	.st8{fill:#375866;}
	.st9{fill:#0F1E23;}
	.st10{fill:#385A65;}
	.st11{fill:#F9BE9D;}
	.st12{fill:#243D45;}
	.st13{fill:none;stroke:#243D45;stroke-miterlimit:10;}
	.st14{fill:#385A64;}
	.st15{fill:#D8DADD;}
	.st16{fill:#F49A6C;}
	.st17{fill:#F3986D;}
	.st18{fill:#1C2F35;}
	.st19{fill:#EE725F;}
	.st20{fill:#CD5040;}
	.st21{fill:#F39B91;}
	.st22{fill:none;stroke:#1A2E35;stroke-width:2;stroke-miterlimit:10;}
	.st23{fill:#ADADAD;}
	.st24{fill:#797A7A;}
	.st25{fill:none;stroke:#1A2E35;stroke-miterlimit:10;}
	.st26{fill:none;stroke:#385A65;stroke-width:2;stroke-miterlimit:10;}
	.st27{fill:#385B65;}
	.st28{fill:#94362B;}
	.st29{opacity:0.53;fill:#627C84;}
</style>
<g id="Слой_1">
	<rect x="1135.69" y="80.13" class="st0" width="43.97" height="43.97"/>
	<rect x="1179.66" y="80.13" class="st1" width="14.31" height="43.97"/>
	<rect x="278.27" y="67.99" class="st0" width="48.71" height="51.78"/>
	<rect x="326.97" y="67.99" class="st1" width="15.85" height="51.78"/>
	<rect x="71.23" y="348.14" class="st0" width="88.64" height="556.82"/>
	<rect x="159.86" y="348.14" class="st1" width="86.36" height="556.82"/>
	<rect x="107.43" y="372.29" class="st2" width="16.24" height="31.06"/>
	<rect x="107.43" y="435.12" class="st2" width="16.24" height="31.06"/>
	<rect x="107.43" y="497.94" class="st2" width="16.24" height="31.06"/>
	<rect x="107.43" y="560.76" class="st2" width="16.24" height="31.06"/>
	<rect x="107.43" y="623.59" class="st2" width="16.24" height="31.06"/>
	<rect x="107.43" y="749.24" class="st2" width="16.24" height="31.06"/>
	<rect x="107.43" y="686.41" class="st2" width="16.24" height="31.06"/>
	<rect x="194.93" y="376.53" class="st3" width="16.24" height="31.06"/>
	<rect x="194.93" y="437.24" class="st3" width="16.24" height="31.06"/>
	<rect x="195.28" y="497.94" class="st3" width="16.24" height="31.06"/>
	<rect x="195.28" y="560.76" class="st3" width="16.24" height="31.06"/>
	<line class="st4" x1="57.59" y1="348.14" x2="253.12" y2="348.14"/>
	<line class="st5" x1="71.23" y1="416.76" x2="246.23" y2="416.76"/>
	<line class="st5" x1="72.36" y1="479.59" x2="247.36" y2="479.59"/>
	<line class="st5" x1="71.23" y1="542.41" x2="246.23" y2="542.41"/>
	<line class="st5" x1="70.09" y1="606.24" x2="245.09" y2="606.24"/>
	<line class="st5" x1="68.95" y1="670.06" x2="243.95" y2="670.06"/>
	<line class="st5" x1="67.82" y1="732.88" x2="242.82" y2="732.88"/>
	<rect x="90.76" y="296.35" class="st0" width="48.71" height="54.76"/>
	<rect x="139.47" y="297.35" class="st1" width="15.85" height="48.71"/>
	<rect x="1118.05" y="126.88" class="st0" width="80.02" height="502.71"/>
	<rect x="1198.07" y="126.88" class="st1" width="77.97" height="502.71"/>
	<rect x="1150.73" y="148.69" class="st2" width="14.66" height="28.04"/>
	<rect x="1150.73" y="205.41" class="st2" width="14.66" height="28.04"/>
	<rect x="1150.73" y="262.13" class="st2" width="14.66" height="28.04"/>
	<rect x="1150.73" y="318.85" class="st2" width="14.66" height="28.04"/>
	<rect x="1150.73" y="375.57" class="st2" width="14.66" height="28.04"/>
	<rect x="1150.73" y="432.29" class="st2" width="14.66" height="28.04"/>
	<rect x="1150.73" y="489.01" class="st2" width="14.66" height="28.04"/>
	<rect x="1229.73" y="152.52" class="st3" width="14.66" height="28.04"/>
	<rect x="1229.73" y="207.32" class="st3" width="14.66" height="28.04"/>
	<rect x="1230.05" y="262.13" class="st3" width="14.66" height="28.04"/>
	<rect x="1232.61" y="373.8" class="st3" width="14.66" height="28.04"/>
	<rect x="1232.61" y="373.8" class="st3" width="14.66" height="28.04"/>
	<rect x="1230.05" y="318.85" class="st3" width="14.66" height="28.04"/>
	<line class="st4" x1="1105.73" y1="126.88" x2="1282.26" y2="126.88"/>
	<line class="st5" x1="1118.05" y1="188.84" x2="1276.04" y2="188.84"/>
	<line class="st5" x1="1119.07" y1="245.56" x2="1277.07" y2="245.56"/>
	<line class="st5" x1="1118.05" y1="302.28" x2="1276.04" y2="302.28"/>
	<line class="st6" x1="1117.02" y1="359.9" x2="1275.02" y2="359.9"/>
	<line class="st6" x1="1116" y1="417.52" x2="1273.99" y2="417.52"/>
	<line class="st6" x1="1114.97" y1="474.24" x2="1272.96" y2="474.24"/>
	<rect x="1290.67" y="339.8" class="st0" width="80.76" height="568.97"/>
	<rect x="1371.42" y="339.8" class="st1" width="78.69" height="568.97"/>
	<rect x="1323.65" y="364.48" class="st2" width="14.79" height="31.74"/>
	<rect x="1323.65" y="428.68" class="st2" width="14.79" height="31.74"/>
	<rect x="1323.65" y="492.87" class="st2" width="14.79" height="31.74"/>
	<rect x="1323.65" y="557.06" class="st2" width="14.79" height="31.74"/>
	<rect x="1323.65" y="621.26" class="st2" width="14.79" height="31.74"/>
	<rect x="1323.65" y="685.45" class="st2" width="14.79" height="31.74"/>
	<rect x="1323.65" y="749.65" class="st2" width="14.79" height="31.74"/>
	<rect x="1403.37" y="368.81" class="st3" width="14.79" height="31.74"/>
	<rect x="1403.37" y="430.84" class="st3" width="14.79" height="31.74"/>
	<rect x="1403.69" y="492.87" class="st3" width="14.79" height="31.74"/>
	<rect x="1403.69" y="557.06" class="st3" width="14.79" height="31.74"/>
	<rect x="1403.37" y="620.27" class="st3" width="14.79" height="31.74"/>
	<rect x="1403.37" y="686.69" class="st3" width="14.79" height="31.74"/>
	<rect x="1403.37" y="746.98" class="st3" width="14.79" height="31.74"/>
	<line class="st4" x1="1278.24" y1="339.8" x2="1456.39" y2="339.8"/>
	<line class="st5" x1="1290.67" y1="409.92" x2="1450.11" y2="409.92"/>
	<line class="st5" x1="1291.7" y1="474.12" x2="1451.15" y2="474.12"/>
	<line class="st5" x1="1290.67" y1="538.31" x2="1450.11" y2="538.31"/>
	<line class="st5" x1="1289.63" y1="603.53" x2="1449.07" y2="603.53"/>
	<line class="st5" x1="1288.6" y1="668.74" x2="1448.04" y2="668.74"/>
	<line class="st5" x1="1287.56" y1="732.94" x2="1447" y2="732.94"/>
	<rect x="1308.47" y="286.88" class="st0" width="44.38" height="49.77"/>
	<rect x="1352.84" y="286.88" class="st1" width="14.44" height="49.77"/>
	<rect x="453.05" y="165.16" class="st0" width="80.76" height="507.31"/>
	<rect x="533.8" y="165.16" class="st1" width="78.68" height="507.31"/>
	<rect x="486.03" y="187.17" class="st2" width="14.79" height="28.3"/>
	<rect x="486.03" y="244.41" class="st2" width="14.79" height="28.3"/>
	<rect x="565.75" y="191.03" class="st3" width="14.79" height="28.3"/>
	<rect x="1195.94" y="435.85" class="st1" width="111.36" height="473.25"/>
	<g>
		<line class="st7" x1="43.82" y1="908.76" x2="1456.29" y2="908.76"/>
		<polygon class="st8" points="43.82,908.76 220.38,908.04 396.94,907.62 750.06,907.27 1103.18,907.61 1279.74,908.03 
			1456.29,908.76 1279.74,909.5 1103.18,909.92 750.06,910.26 396.94,909.91 220.38,909.49 		"/>
	</g>
	<rect x="565.75" y="246.34" class="st3" width="14.79" height="28.3"/>
	<line class="st4" x1="440.62" y1="165.16" x2="618.76" y2="165.16"/>
	<line class="st5" x1="453.05" y1="227.69" x2="612.49" y2="227.69"/>
	<line class="st6" x1="454.08" y1="284.93" x2="613.52" y2="284.93"/>
	<rect x="258.73" y="119.78" class="st0" width="88.64" height="556.82"/>
	<rect x="347.37" y="119.78" class="st1" width="86.36" height="556.82"/>
	<rect x="294.93" y="143.93" class="st2" width="16.24" height="31.06"/>
	<rect x="294.93" y="206.76" class="st2" width="16.24" height="31.06"/>
	<rect x="294.93" y="269.58" class="st2" width="16.24" height="31.06"/>
	<rect x="294.93" y="332.41" class="st2" width="16.24" height="31.06"/>
	<rect x="294.93" y="395.23" class="st2" width="16.24" height="31.06"/>
	<rect x="294.93" y="458.05" class="st0" width="16.24" height="31.06"/>
	<rect x="382.43" y="148.17" class="st3" width="16.24" height="31.06"/>
	<rect x="382.43" y="208.88" class="st3" width="16.24" height="31.06"/>
	<rect x="382.78" y="269.58" class="st3" width="16.24" height="31.06"/>
	<line class="st4" x1="245.09" y1="119.78" x2="440.62" y2="119.78"/>
	<line class="st5" x1="258.73" y1="188.41" x2="433.73" y2="188.41"/>
	<line class="st5" x1="259.87" y1="251.23" x2="434.87" y2="251.23"/>
	<line class="st5" x1="258.73" y1="314.05" x2="433.73" y2="314.05"/>
	<line class="st5" x1="257.59" y1="377.88" x2="432.59" y2="377.88"/>
	<path class="st1" d="M521.35,116.7h129.88c0,0-1.41-10.88-11.29-14.58c-9.88-3.71-12,2.65-18.35-5.12
		c-6.35-7.76-12.71-22.59-28.94-16.87c-11.04,3.89-9.36,15.33-19.5,12.21c-10.14-3.11-22.14,5.01-26.38,9.77
		c-4.24,4.76-8.73-2.23-17.07,6.18C521.35,116.7,521.35,116.7,521.35,116.7z"/>
	<path class="st1" d="M936.41,130.2h124.6c0,0-1.35-10.43-10.83-13.99s-11.51,2.54-17.61-4.91c-6.09-7.45-12.19-21.67-27.76-16.18
		c-10.59,3.73-8.98,14.7-18.71,11.72c-9.73-2.98-21.24,4.8-25.31,9.37s-8.38-2.14-16.38,5.93
		C936.41,130.2,936.41,130.2,936.41,130.2z"/>
	<path class="st1" d="M1309.12,219.48h133.41c0,0-1.45-8.8-11.6-11.8c-10.15-3-12.33,2.14-18.85-4.14
		c-6.53-6.28-13.05-18.28-29.73-13.65c-11.34,3.15-9.61,12.4-20.03,9.89c-10.42-2.52-22.75,4.05-27.1,7.91s-8.97-1.8-17.54,5
		S1309.12,219.48,1309.12,219.48z"/>
	<path class="st1" d="M90.87,191.47h113.05c0,0-1.23-9.47-9.83-12.69s-10.45,2.3-15.97-4.45c-5.53-6.76-11.06-19.66-25.19-14.68
		c-9.61,3.39-8.15,13.34-16.98,10.63c-8.83-2.71-19.28,4.36-22.96,8.51c-3.69,4.15-7.6-1.94-14.86,5.38
		C90.87,191.47,90.87,191.47,90.87,191.47z"/>
	<path class="st1" d="M710.28,228.02h199.66c0,0-2.17-12.99-17.36-17.42c-15.19-4.43-18.45,3.16-28.21-6.12
		s-19.53-26.99-44.49-20.16c-16.98,4.65-14.39,18.31-29.98,14.59c-15.59-3.72-34.04,5.98-40.55,11.68
		c-6.51,5.69-13.42-2.66-26.24,7.38C710.28,228.02,710.28,228.02,710.28,228.02z"/>
	<path class="st9" d="M338.97,867.59l0.65,30.12c0,0,25.12,0,31.9-1.88c6.78-1.88,20.43-5.65,23.72-17.41s2.35-13.97,2.35-13.97
		h-58.62V867.59z"/>
	<path class="st9" d="M1014.01,867.66l-0.65,30.12c0,0-25.12,0-31.9-1.88c-6.78-1.88-20.43-5.65-23.72-17.41s-2.35-13.97-2.35-13.97
		h58.62V867.66z"/>
	<polyline class="st9" points="338.97,864.44 338.97,867.59 339.62,897.71 	"/>
	<path class="st7" d="M1011.36,865.15c0,0-2.02,54.68-0.84,62.21c1.18,7.53,11.18,19.29,26.42,21.65c15.24,2.35,66.16,0.47,78.58,0
		s26.07-6.59,32.19-24c6.12-17.41,10.25-74.82,11.01-102.12c0.76-27.29-4.42-140.58-4.38-141.13
		C1154.37,681.21,1011.36,865.15,1011.36,865.15"/>
	<path class="st7" d="M338.68,865.15c0,0,2.02,54.68,0.84,62.21c-1.18,7.53-11.18,19.29-26.42,21.65s-66.16,0.47-78.58,0
		c-12.42-0.47-26.07-6.59-32.19-24s-10.25-74.82-11.01-102.12c-0.76-27.29,4.42-140.58,4.38-141.13S338.68,865.15,338.68,865.15"/>
</g>
<g id="Слой_5">
	<path class="st10" d="M1273.48,911.95c0,0,5.52,1.05,6.69-4.13c1.18-5.18,10.59-59.53,9.88-62.82c-0.71-3.29-3.06-6.12-3.06-6.12
		L1273.48,911.95z"/>
	<path class="st7" d="M1239.94,841.24c0,0,12.24,16.24,14.35,22.12c2.12,5.88,11.76,45.88,15.53,47.76c3.76,1.88,5.88,0,5.88,0
		l11.29-72.24l-13.88-22.93L1239.94,841.24z"/>
	<path class="st11" d="M1272.41,256.18c0,0-5.29-5.41-10.94-6.94c-5.65-1.53-11.65-0.82-13.41-6.82c-1.76-6-3.18-14.47,0-15.18
		c3.18-0.71,3.53,6,4.94,7.41c1.41,1.41,6.29,1.76,6.29,1.76s0.77-6.81-1.7-9.23s-5.29-4.89-5.29-4.89s-4.48,5.29-6.12,3.53
		c-1.64-1.76,0.48-9.53,4.36-11.29c3.88-1.76,8.82,4.94,10.24,4.24c1.41-0.71-6-20.12-5.65-24.35c0.35-4.24,0.73-7.06,3.89-6.71
		c3.17,0.35,8.11,25.76,10.22,27.53c2.12,1.76,3.88,4.24,3.18-2.12c-0.71-6.35-4.59-23.35-2.82-25.44c1.76-2.09,3.53-4.27,4.94,0
		s4.59,27.91,4.59,27.91s4.24-5.65,5.29-8.47s-1.06-9.88,0-12s3.88-3.18,3.88-3.18s2.82,13.76,2.12,16.94
		c-0.71,3.18-5.65,12.71-5.65,15.53c0,2.82-0.33,19.89,2.12,22.94c2.45,3.05,3.64,4.94,3.64,4.94L1272.41,256.18z"/>
	<path class="st11" d="M1106.91,289.05l-10.49-34.17c0,0-6.59,4.24-10.82,0c-4.24-4.24-5.18-15.53,0-17.41
		c5.18-1.88,8.89-37.65,8.89-37.65l40.99-30.12c0,0,12.24,12.24,16.24,25.41s15.46,45.68,15.53,56.08
		c0.05,7.8-1.65,11.28-4.47,14.58c-2.82,3.29-8.58,6.99-8.58,6.99l4.54,8.5c0,0-48.43,12.86-50.12,10.32L1106.91,289.05z"/>
	<path class="st7" d="M1149.17,743.4l24.23,28.32l-4.75,97.51l55.76,5.65v-38.83l10.59,12.72l45.18-33.1l-45.88-67.75
		c0,0,24-187.15,20.47-208.32c-3.53-21.18-10.59-48.84-10.59-48.84l-145.76,38.95L1149.17,743.4"/>
	<path class="st10" d="M989.36,335.45c0,0,87.6-24.43,99.44-29.91c11.85-5.48,15.41-7.36,15.41-7.36s-1.61-3.76,0-7.06
		c1.61-3.29,16.67-6.53,33.38-9.85c16.71-3.32,18.96-1.85,21.13,0c2.17,1.85,4.05,7.97,4.05,7.97s48-2.35,57.41,0.47
		c9.41,2.82,55.53,30.97,55.53,30.97l-12.24-66.26l33.41-5.18c0,0,22.12,84.71,22.12,94.59s-1.88,22.59-13.65,28.24
		c-11.76,5.65-31.06,2.82-43.76-4.71c-12.71-7.53-44.71-20.71-44.71-20.71s9.41,56,12.71,68.71c3.29,12.71,12.71,42.82,12.71,48
		c0,5.18-1.41,14.47-1.41,14.47l4.71,18.47l-136.99,33.41l-4.38-4.24v-12.71c0,0-5.92-2.59-6.86-7.41
		c-0.94-4.82-0.47-7.74-3.76-21.57c-3.29-13.84-25.88-111.25-25.88-111.25s-21.24,4.74-27.33,5.67c-6.09,0.92-24.22,0-24.22,0
		L989.36,335.45z"/>
	<path class="st12" d="M1139.53,477.35l49.31-64.12c0,0-2.54,26.82-15.96,39.53S1139.53,477.35,1139.53,477.35z"/>
	<path class="st11" d="M917.71,294.54c0,0-4.24-9.07,0-11.54s8.47-1.73,8.47-1.73s2.96-2.85,6.25-1.8c3.28,1.06,3.28,1.06,3.28,1.06
		s2.47-1.18,5.29-1.29s7.06,4.12,7.06,4.12s6.35-1.41,8.12,3.53s4.94,16,4.94,16s3.88-0.21,4.59,2.66s-0.32,7.6-0.32,7.6
		L917.71,294.54z"/>
	<path class="st7" d="M1085.71,236.76c0,0,3.53-2.47,6.35,0c2.82,2.47,2.47,13.29,4.59,12.47c2.12-0.82,4.2-5.76,2.63-21.29
		c-1.57-15.53-2.63-13.06-1.57-15.53c1.06-2.47,1.57-5.29,1.57-5.29s4.78,0,7.6-2.82c2.82-2.82,1.71-6.71,1.71-6.71
		s2.88,2.12,6.05,0c3.18-2.12,1.76-8.12,4.59-8.82c2.82-0.71,2.5,1.06,5.31,0s-0.37-8.12,1.75-9.53c2.12-1.41,12.35-3.9,19.06,5.99
		c6.71,9.89,6.35,12.36,6.35,12.36s8.12,0.35,8.47-6c0.35-6.35-8.47-12-8.47-12s3.18-4.94,0-8.82c-3.18-3.88-12.35-3.88-12.35-3.88
		s-1.76-8.82-9.18-8.12c-7.41,0.71-9.53,2.47-9.53,2.47s-5.23-3.18-9.14-1.06s-5.68,5.29-5.68,5.29s-2.82-0.71-4.94,1.41
		s-3.53,7.06-3.53,7.06s-5.65-2.82-9.53,0.35c-3.88,3.18-5.29,10.93-5.29,10.93s-9.53-2.11-9.18,4.95c0.35,7.06,2.47,9.18,2.47,9.18
		s-4.61,3.18-2.48,6.71c2.13,3.53,5.66,4.59,5.66,4.59L1085.71,236.76z"/>
	<g>
		<path class="st7" d="M1211,302.88c1.53,9.17,2.95,18.35,4.35,27.53l4.09,27.57l3.86,27.6l1.85,13.81l1.74,13.83l-2.23-13.76
			l-2.12-13.77l-4.08-27.57l-3.86-27.6C1213.35,321.32,1212.12,312.11,1211,302.88z"/>
	</g>
	<g>
		<path class="st7" d="M1060.7,341.59c1.72,6.31,3.33,12.64,4.93,18.97c1.6,6.33,3.11,12.69,4.67,19.03l4.44,19.09l2.14,9.56
			c0.68,3.2,1.39,6.38,2.04,9.59c-0.87-3.15-1.68-6.32-2.52-9.47l-2.41-9.5l-4.66-19.03c-1.48-6.36-3-12.71-4.44-19.09
			C1063.44,354.36,1062.02,347.99,1060.7,341.59z"/>
	</g>
	<g>
		<path class="st7" d="M1179.59,373c-3.37,6.8-6.9,13.52-10.5,20.19c-3.61,6.68-7.35,13.28-11.18,19.83
			c-1.95,3.26-3.93,6.5-5.99,9.69c-2.03,3.2-4.21,6.35-6.59,9.32c-2.37,2.96-4.7,5.95-6.96,8.98c-2.28,3.02-4.51,6.09-6.58,9.27
			c3.83-6.56,8.36-12.68,12.94-18.73c4.58-6.01,8.46-12.54,12.32-19.05c3.9-6.5,7.62-13.1,11.37-19.7L1179.59,373z"/>
	</g>
	<g>
		<path class="st7" d="M1194.79,404.24c-4.42,7.46-9.03,14.8-13.82,22.03c-4.77,7.24-9.7,14.37-14.82,21.37
			c-1.29,1.74-2.58,3.49-3.91,5.21c-1.32,1.73-2.63,3.45-4.01,5.13c-2.71,3.38-5.6,6.71-8.69,9.76c-3.05,3.06-6.08,6.15-9.06,9.28
			c-3,3.12-5.92,6.31-8.71,9.63c4.97-7.11,10.74-13.64,16.64-19.99c0.75-0.79,1.47-1.59,2.17-2.4c0.7-0.81,1.45-1.57,2.12-2.42
			c1.37-1.66,2.74-3.32,4.04-5.04c2.67-3.38,5.24-6.86,7.79-10.35c5.13-6.96,10.12-14.02,15.15-21.07
			C1184.69,418.32,1189.72,411.27,1194.79,404.24z"/>
	</g>
	<line class="st13" x1="1244.18" y1="490.75" x2="1106.39" y2="527.58"/>
	<g>
		<path class="st12" d="M1125.89,509.99c1.08,2.3,1.87,4.69,2.58,7.1c0.69,2.42,1.3,4.85,1.62,7.38c-1.08-2.3-1.87-4.69-2.58-7.1
			C1126.83,514.95,1126.22,512.51,1125.89,509.99z"/>
	</g>
	<g>
		<path class="st12" d="M1154.86,505.1c0.67,2.45,1.03,4.94,1.32,7.44c0.26,2.5,0.45,5,0.33,7.54c-0.67-2.45-1.03-4.94-1.32-7.44
			C1154.93,510.14,1154.74,507.64,1154.86,505.1z"/>
	</g>
	<g>
		<path class="st12" d="M1183.16,495.01c0.67,2.45,1.03,4.94,1.32,7.44c0.26,2.5,0.45,5,0.33,7.54c-0.67-2.45-1.03-4.94-1.32-7.44
			C1183.23,500.05,1183.04,497.55,1183.16,495.01z"/>
	</g>
	<g>
		<path class="st12" d="M1206.54,490.75c0.67,2.45,1.03,4.94,1.32,7.44c0.26,2.5,0.45,5,0.33,7.54c-0.67-2.45-1.03-4.94-1.32-7.44
			C1206.6,495.8,1206.42,493.29,1206.54,490.75z"/>
	</g>
	<g>
		<path class="st12" d="M1228.63,483.78c0.67,2.45,1.03,4.94,1.32,7.44c0.26,2.5,0.45,5,0.33,7.54c-0.67-2.45-1.03-4.94-1.32-7.44
			C1228.7,488.83,1228.51,486.32,1228.63,483.78z"/>
	</g>
	<g>
		<path class="st12" d="M1106.53,298.88c4.86,0.39,9.7,0.53,14.53,0.46c4.82-0.11,9.64-0.39,14.38-1.14
			c4.75-0.7,9.43-1.8,14.01-3.28c4.57-1.5,9.06-3.31,13.31-5.69c-3.8,3.08-8.23,5.35-12.79,7.16c-4.57,1.82-9.37,3.04-14.24,3.79
			c-4.87,0.73-9.8,0.92-14.7,0.72C1116.15,300.67,1111.26,300.09,1106.53,298.88z"/>
	</g>
	<g>
		<polygon class="st14" points="1177.82,550.18 1182.05,614.91 1186.05,679.66 1185.9,679.24 1233.49,747.13 1257.24,781.11 
			1280.93,815.14 1281.44,815.87 1280.72,816.4 1235.47,849.41 1234.85,849.86 1234.38,849.26 1190.83,794.33 1147.46,739.27 
			1191.62,793.7 1235.62,848.27 1234.53,848.12 1279.64,814.93 1279.43,816.19 1255.64,782.23 1231.92,748.23 1184.57,680.17 
			1184.43,679.98 1184.42,679.75 1181.01,614.97 		"/>
	</g>
	<g>
		<path class="st15" d="M1249.31,854.52c-0.13-1.32,0.3-2.66,1.03-3.82c0.74-1.16,1.86-2.11,3.14-2.67
			c1.25-0.54,2.45-0.86,3.75-1.05c1.28-0.17,2.61-0.22,3.88,0.14l-3.48,1.38c-1.11,0.45-2.29,0.91-3.33,1.36
			C1252.29,850.73,1250.68,852.31,1249.31,854.52z"/>
	</g>
	<g>
		<path class="st15" d="M1255.22,865.15c-0.13-1.32,0.3-2.66,1.03-3.82c0.74-1.16,1.86-2.11,3.14-2.67
			c1.25-0.54,2.45-0.86,3.75-1.05c1.28-0.17,2.61-0.22,3.88,0.14l-3.48,1.38c-1.11,0.45-2.29,0.91-3.33,1.36
			C1258.19,861.35,1256.58,862.94,1255.22,865.15z"/>
	</g>
	<g>
		<path class="st15" d="M1257.99,877.48c0.11-1.32,0.77-2.57,1.7-3.57c0.94-1.01,2.21-1.75,3.57-2.07c1.32-0.31,2.57-0.41,3.87-0.37
			c1.29,0.06,2.6,0.24,3.8,0.83l-3.67,0.74c-1.17,0.24-2.41,0.49-3.52,0.74C1261.59,874.27,1259.72,875.54,1257.99,877.48z"/>
	</g>
	<g>
		<path class="st15" d="M1260.55,886.64c0.28-1.37,1.34-2.51,2.55-3.24c1.22-0.75,2.65-1.13,4.03-1.23
			c1.32-0.11,2.66-0.08,3.99,0.07c1.32,0.16,2.65,0.44,3.89,1.05c-2.67,0.42-5.16,0.65-7.72,0.87c-1.22,0.09-2.38,0.26-3.51,0.64
			C1262.65,885.18,1261.55,885.72,1260.55,886.64z"/>
	</g>
	<g>
		<path class="st15" d="M1264.45,897.2c-0.06-1,0.3-1.98,0.86-2.82c0.58-0.84,1.45-1.54,2.46-1.92c0.53-0.18,0.99-0.28,1.46-0.34
			c0.47-0.07,0.95-0.1,1.43-0.08c0.96,0.04,1.95,0.18,2.81,0.72l-2.61,0.84l-1.24,0.38c-0.42,0.12-0.84,0.25-1.17,0.36
			C1267.08,894.85,1265.86,895.84,1264.45,897.2z"/>
	</g>
	<circle class="st15" cx="1274.74" cy="838.94" r="3.82"/>
	<polygon class="st7" points="1219.24,872.17 1219.24,902.88 1150.53,904.53 1151.94,897.2 1181.59,886.64 1181.29,870.52 	"/>
	<g>
		<path class="st15" d="M1181.37,874.88c0.62-0.54,1.32-0.84,2.05-1.04c0.73-0.18,1.5-0.25,2.29-0.14c0.8,0.11,1.57,0.41,2.22,0.88
			c0.64,0.48,1.21,1.12,1.36,1.95c-0.77-0.25-1.4-0.4-2.03-0.53c-0.62-0.13-1.23-0.24-1.82-0.32c-0.61-0.09-1.26-0.16-1.93-0.27
			C1182.84,875.29,1182.14,875.16,1181.37,874.88z"/>
	</g>
	<g>
		<path class="st15" d="M1181.46,885.29c0.77-0.28,1.54-0.29,2.29-0.21c0.75,0.1,1.49,0.32,2.18,0.72c0.7,0.4,1.3,0.96,1.74,1.64
			c0.41,0.68,0.71,1.49,0.54,2.32c-0.62-0.52-1.16-0.89-1.69-1.25c-0.53-0.35-1.05-0.67-1.57-0.97c-0.53-0.31-1.11-0.61-1.69-0.97
			C1182.67,886.21,1182.07,885.83,1181.46,885.29z"/>
	</g>
	<g>
		<path class="st15" d="M1174.63,888.97c0.8,0.2,1.44,0.61,2.02,1.1c0.57,0.5,1.06,1.09,1.42,1.81c0.36,0.72,0.55,1.52,0.53,2.33
			c-0.03,0.8-0.24,1.63-0.84,2.22c-0.23-0.78-0.47-1.38-0.71-1.97c-0.24-0.59-0.5-1.14-0.77-1.68c-0.27-0.55-0.58-1.13-0.87-1.74
			C1175.13,890.41,1174.84,889.76,1174.63,888.97z"/>
	</g>
	<g>
		<path class="st15" d="M1163.89,892.7c0.8,0.2,1.44,0.61,2.02,1.1c0.57,0.5,1.06,1.09,1.42,1.81c0.36,0.72,0.55,1.52,0.53,2.33
			c-0.03,0.8-0.24,1.63-0.84,2.22c-0.23-0.78-0.47-1.38-0.71-1.97c-0.24-0.59-0.5-1.14-0.77-1.68c-0.27-0.55-0.58-1.13-0.87-1.74
			C1164.39,894.14,1164.1,893.49,1163.89,892.7z"/>
	</g>
	<rect x="1150.98" y="903.35" class="st10" width="68.71" height="5.41"/>
	<circle class="st15" cx="1205.1" cy="884.83" r="3.82"/>
	<g>
		<path class="st16" d="M923.18,289.35c0.85,0.36,1.47,1.02,2.01,1.66c0.53,0.66,0.96,1.37,1.32,2.11c0.36,0.74,0.64,1.52,0.84,2.32
			c0.19,0.81,0.32,1.64,0.24,2.55c-0.7-0.59-1.21-1.24-1.68-1.92c-0.46-0.68-0.86-1.37-1.2-2.1c-0.35-0.72-0.64-1.46-0.89-2.22
			C923.57,290.99,923.37,290.23,923.18,289.35z"/>
	</g>
	<g>
		<path class="st16" d="M932.42,288.83c0.91,0.65,1.53,1.56,2.07,2.45c0.53,0.91,0.96,1.85,1.32,2.82c0.35,0.97,0.63,1.96,0.82,2.98
			c0.18,1.02,0.3,2.06,0.2,3.17c-0.71-0.85-1.22-1.75-1.69-2.66c-0.46-0.92-0.86-1.85-1.2-2.8c-0.35-0.95-0.64-1.92-0.89-2.9
			C932.8,290.89,932.61,289.91,932.42,288.83z"/>
	</g>
	<g>
		<path class="st16" d="M944.23,289c0.81,1.09,1.39,2.34,1.9,3.58c0.52,1.25,0.95,2.52,1.35,3.81c0.77,2.58,1.42,5.19,1.72,7.88
			c-1.07-2.49-1.89-5.03-2.68-7.59c-0.38-1.28-0.77-2.56-1.13-3.84C945.01,291.56,944.69,290.27,944.23,289z"/>
	</g>
	<g>
		<path class="st16" d="M957.72,292.13c0.62,1.35,0.96,2.82,1.23,4.28c0.27,1.46,0.44,2.93,0.58,4.39c0.24,2.94,0.34,5.89,0.09,8.85
			c-0.53-2.92-0.82-5.84-1.08-8.76l-0.36-4.38C958.04,295.05,957.97,293.59,957.72,292.13z"/>
	</g>
	<g>
		<path class="st16" d="M1268.07,241.53c-0.73-0.86-1.49-1.64-2.3-2.34c-0.82-0.69-1.68-1.31-2.64-1.71
			c-0.95-0.44-1.94-0.57-3.07-0.73c-1.1-0.17-2.19-0.37-3.28-0.67c1.12-0.11,2.23-0.13,3.34-0.11c0.56,0,1.09,0.02,1.7,0.1
			c0.59,0.08,1.16,0.26,1.7,0.49c1.08,0.48,2.02,1.21,2.78,2.07C1267.08,239.49,1267.7,240.46,1268.07,241.53z"/>
	</g>
	<g>
		<path class="st17" d="M1090.47,241.53c-0.23-0.3-0.49-0.58-0.79-0.76c-0.3-0.19-0.63-0.18-0.87,0c-0.5,0.37-0.79,1.1-1.03,1.75
			c-0.45,1.35-0.54,2.83-0.2,4.19c0.32,1.36,1.1,2.6,2.22,3.47c0.55,0.43,1.19,0.75,1.88,0.76c0.69,0.04,1.4-0.27,1.97-0.77
			c-0.41,0.65-1.12,1.12-1.94,1.25c-0.83,0.11-1.68-0.17-2.35-0.61c-1.38-0.85-2.36-2.3-2.74-3.87c-0.37-1.58-0.21-3.26,0.45-4.71
			c0.35-0.7,0.72-1.46,1.53-1.89c0.42-0.21,0.97-0.08,1.25,0.21C1090.14,240.83,1090.34,241.17,1090.47,241.53z"/>
	</g>
	<path class="st17" d="M1154.72,273.23l2.72,4.67c0,0-8.84,2.73-17.11,1.42c-8.27-1.32-15.08-6.91-15.08-6.91s12.74,2.63,19.93,2.47
		S1154.72,273.23,1154.72,273.23z"/>
	<path class="st17" d="M1141.05,244c0,0,1.48,7.06-2.23,8.29c-3.71,1.24-8.47,0-8.82-4.15c-0.35-4.15-0.35-4.15-0.35-4.15H1141.05z"
		/>
	<g>
		<path class="st18" d="M1137.5,252.75c-1.16,0.16-2.35,0.15-3.53-0.02c-1.15-0.21-2.42-0.62-3.24-1.74
			c-0.69-1.07-0.99-2.26-1.24-3.43c-0.21-1.18-0.33-2.35-0.35-3.56l-0.01-0.51l0.52,0.02c2.15,0.07,4.29,0.15,6.44,0.3
			c2.14,0.14,4.29,0.29,6.43,0.55c-2.15,0.14-4.3,0.18-6.45,0.2c-2.15,0.04-4.3-0.01-6.44-0.05l0.51-0.5
			c0.03,1.12,0.11,2.28,0.3,3.4c0.17,1.12,0.46,2.23,0.96,3.18c0.5,0.86,1.59,1.39,2.67,1.66
			C1135.17,252.56,1136.33,252.68,1137.5,252.75z"/>
	</g>
	<g>
		<path class="st18" d="M1137.41,237.47c1.37-0.51,2.74-0.98,4.08-1.55c0.67-0.27,1.34-0.55,1.97-0.88c0.3-0.16,0.63-0.35,0.83-0.54
			c0.11,0.12-0.04-0.29-0.18-0.59c-0.63-1.25-1.41-2.49-2.18-3.71c-0.78-1.22-1.56-2.44-2.37-3.65l-4.78-7.3l-2.37-3.67
			c-0.77-1.24-1.56-2.46-2.31-3.71c1.85,2.25,3.6,4.59,5.32,6.94c1.73,2.35,3.37,4.75,4.98,7.18c1.57,2.47,3.2,4.87,4.42,7.61
			c0.07,0.18,0.14,0.36,0.19,0.57c0.02,0.11,0.06,0.21,0.03,0.4c0.03,0.04-0.12,0.33-0.14,0.31l-0.13,0.12
			c-0.35,0.29-0.68,0.43-1.03,0.59c-0.69,0.3-1.38,0.55-2.08,0.77C1140.25,236.8,1138.84,237.18,1137.41,237.47z"/>
	</g>
	<g>
		<path class="st18" d="M1106.79,213.12c0.2-1.18,0.73-2.21,1.44-3.1c0.72-0.88,1.64-1.63,2.7-2.14c1.05-0.5,2.15-0.77,3.26-0.84
			c1.11-0.06,2.24,0.04,3.36,0.53c-0.95,0.75-1.85,1.27-2.74,1.74c-0.89,0.47-1.75,0.88-2.58,1.27l-2.5,1.25
			C1108.85,212.25,1107.95,212.73,1106.79,213.12z"/>
	</g>
	<g>
		<path class="st18" d="M1137.75,201.98c0.59-0.99,1.43-1.71,2.38-2.23c0.95-0.52,2.03-0.83,3.15-0.9c1.1-0.06,2.16,0.11,3.16,0.45
			c0.99,0.36,1.95,0.86,2.74,1.72c-1.1,0.36-2.08,0.51-3.03,0.62c-0.95,0.1-1.85,0.16-2.71,0.2l-2.63,0.15
			C1139.88,202.03,1138.91,202.09,1137.75,201.98z"/>
	</g>
	<g>
		<path class="st18" d="M1110.76,220.88c0.23-1.13,0.81-2.13,1.58-2.99c0.78-0.85,1.83-1.58,3.1-1.85c0.31-0.08,0.64-0.08,0.96-0.11
			c0.29,0,0.56,0.01,0.84,0.03c0.55,0.04,1.11,0.12,1.65,0.24c1.08,0.25,2.16,0.63,3.07,1.34c-1.13,0.1-2.17,0.16-3.2,0.23
			l-1.54,0.09l-0.75,0.05c-0.21,0.04-0.41,0.03-0.62,0.1c-0.82,0.17-1.66,0.57-2.5,1.08
			C1112.52,219.6,1111.69,220.22,1110.76,220.88z"/>
	</g>
	<g>
		<path class="st18" d="M1140.31,212.33c0.23-1.13,0.81-2.13,1.58-2.99c0.78-0.85,1.83-1.58,3.1-1.85c0.31-0.08,0.64-0.08,0.96-0.11
			c0.29,0,0.56,0.01,0.84,0.03c0.55,0.04,1.11,0.12,1.65,0.24c1.08,0.25,2.16,0.63,3.07,1.34c-1.13,0.1-2.17,0.16-3.2,0.23
			l-1.54,0.09l-0.75,0.05c-0.21,0.04-0.41,0.03-0.62,0.1c-0.82,0.17-1.66,0.57-2.5,1.08
			C1142.06,211.04,1141.24,211.67,1140.31,212.33z"/>
	</g>
	<circle class="st18" cx="1119.23" cy="225.92" r="2.74"/>
	<circle class="st18" cx="1145.92" cy="218.89" r="2.74"/>
	<g>
		<path class="st8" d="M1073.41,201.98c-0.03,1.46,0.2,2.92,0.71,4.27c0.51,1.34,1.43,2.55,2.7,3.18c1.28,0.59,2.72,0.89,4.13,0.88
			c1.41-0.02,2.86-0.35,4.05-1l0.31-0.17l0.16,0.33c0.64,1.32,1.64,2.55,2.89,3.31c0.62,0.39,1.32,0.63,2.03,0.74
			c0.74,0.12,1.39,0.06,2.04-0.25c1.29-0.61,2.31-1.8,3.18-3.03c0.86-1.25,1.6-2.62,2.19-4.01l0.2-0.46l0.47,0.23
			c1.12,0.54,2.52,0.7,3.78,0.47c1.28-0.25,2.47-0.89,3.48-1.75c1.02-0.88,1.85-1.92,2.29-3.16c0.44-1.21,0.49-2.63,0.15-3.82
			l-0.34-1.23l1.07,0.73c0.39,0.27,1.1,0.47,1.73,0.55c0.65,0.09,1.32,0.11,1.99,0.07c0.32-0.03,0.71-0.03,0.93-0.1
			c0.25-0.07,0.5-0.22,0.73-0.42c0.45-0.4,0.82-0.96,1.14-1.54c0.63-1.18,1.09-2.47,1.48-3.79c0.19-0.66,0.37-1.32,0.53-1.99
			l0.12-0.5c0.04-0.18,0.11-0.39,0.2-0.57c0.18-0.37,0.46-0.68,0.8-0.9c0.67-0.45,1.59-0.5,2.3-0.11c0.6,0.38,1.17,0.6,1.84,0.7
			c0.64,0.1,1.33,0.08,1.92-0.15c0.59-0.21,1.03-0.7,0.98-1.33c-0.19-1.32-0.4-2.75-0.4-4.13c-0.01-1.39,0.07-2.82,0.59-4.11
			c-0.43,1.32-0.42,2.73-0.35,4.1c0.07,1.39,0.34,2.71,0.6,4.12c0.04,0.38-0.06,0.81-0.3,1.14c-0.24,0.33-0.58,0.55-0.93,0.7
			c-0.71,0.28-1.46,0.31-2.18,0.22c-0.71-0.08-1.46-0.36-2.04-0.72c-0.52-0.27-1.18-0.21-1.66,0.12c-0.24,0.16-0.43,0.39-0.55,0.65
			c-0.06,0.13-0.1,0.26-0.13,0.42l-0.11,0.51c-0.15,0.68-0.31,1.36-0.49,2.04c-0.37,1.35-0.79,2.7-1.46,3.98
			c-0.34,0.63-0.73,1.26-1.31,1.79c-0.29,0.26-0.64,0.49-1.05,0.62c-0.45,0.12-0.77,0.1-1.13,0.14c-0.71,0.04-1.44,0.04-2.16-0.06
			c-0.74-0.12-1.42-0.22-2.19-0.73l0.73-0.5c0.43,1.49,0.37,3.01-0.12,4.44c-0.48,1.43-1.45,2.65-2.54,3.6
			c-1.1,0.97-2.47,1.68-3.95,1.96c-1.49,0.24-3.01,0.08-4.41-0.61l0.66-0.23c-0.64,1.47-1.4,2.86-2.32,4.17
			c-0.93,1.28-2,2.57-3.56,3.3c-0.76,0.37-1.73,0.45-2.53,0.29c-0.82-0.14-1.62-0.46-2.31-0.91c-1.39-0.92-2.41-2.23-3.08-3.72
			l0.47,0.16c-1.39,0.71-2.88,0.99-4.39,0.98c-1.51-0.02-2.98-0.38-4.32-1.07c-1.34-0.74-2.25-2.06-2.71-3.46
			C1073.44,204.92,1073.3,203.43,1073.41,201.98z"/>
	</g>
</g>
<g id="Слой_3">
	<path class="st19" d="M229.12,558.29c0,0,0-16.94,12.71-30.71s50.82-56.12,57.18-74.12s36-94.06,64.59-120.62
		c28.59-26.56,19.06-38.21,128.12-46.68c109.06-8.47,202.1-3.18,236.58-4.24c34.48-1.06,175.3,3.76,217.66,20.94
		c42.35,17.18,58.31,51.76,87.88,109.41c26.62,51.9,22.24,49.65,34.94,65.53c12.71,15.88,41.29,61.41,50.82,74.12
		s32.82,21.18,38.12,32.82c5.29,11.65-11.65,210.71-18,239.29c-6.35,28.59-9.45,32.62-28.51,41.09l-859.84-0.85
		c0,0-32.82,0-39.18-19.06c-6.35-19.06-24.35-245.65-20.12-258.35C196.29,574.18,229.12,558.29,229.12,558.29z"/>
	<path class="st20" d="M479.2,681.75c0,0,45.65,25.83,151.53,24.42c105.88-1.41,133.41-1.85,173.65-7.98s74.74-13.97,74.74-13.97
		L479.2,681.75z"/>
	<path class="st20" d="M332.18,447.12c0,0,7.06,10.59,24,16.24c16.94,5.65,610.51,2.07,623.29,2.34
		c32.47,0.7,37.41-18.58,37.41-18.58H332.18z"/>
	<path class="st21" d="M433.82,301.71c0,0,98.12-2.12,135.53-4.94c37.41-2.82,110.82-8.47,110.82-8.47s-101.65-1.41-132,0
		C517.82,289.71,433.82,301.71,433.82,301.71z"/>
	<path class="st21" d="M371,511.35c0,0,4.24,0.71,7.06-4.24c2.82-4.94,0-7.12,0-7.12s5.65,7.19,33.88,11.39
		c28.24,4.2,216,13.38,216,13.38l13.41,21.88H394.29L371,511.35z"/>
	<path class="st21" d="M311.71,477.47l6.35,2.82l45.88,78.35h-12.71L282.76,529c0,0,15.53-4.24,25.41-16.24
		S311.71,477.47,311.71,477.47z"/>
	<path class="st21" d="M210.76,662.41l12-94.59c0,0-21.18,7.06-24,17.65S210.76,662.41,210.76,662.41z"/>
	<path class="st21" d="M1139.35,662.41l-12-94.59c0,0,21.18,7.06,24,17.65S1139.35,662.41,1139.35,662.41z"/>
	<path class="st21" d="M248.18,708.29l54.35,7.76c0,0-19.06-31.76-34.59-27.53S248.18,708.29,248.18,708.29z"/>
	<path class="st21" d="M1102.29,708.29l-54.35,7.76c0,0,19.06-31.76,34.59-27.53S1102.29,708.29,1102.29,708.29z"/>
	<polygon class="st20" points="382.29,567.82 396.41,555.12 317.35,442.88 313.82,447.12 	"/>
	<polygon class="st20" points="968.47,567.82 954.35,555.12 1033.41,442.88 1036.94,447.12 	"/>
	<path class="st20" d="M439.47,702.1l-49.41-39.69l-155.29-81.18c0,0-9.18,35.29-6.35,43.76c2.82,8.47,24,24.71,50.82,32.47
		S439.47,702.1,439.47,702.1z"/>
	<path class="st20" d="M908.88,698.19l50.87-37.79L1118,585.14c0,0,7.84,35.62,4.7,43.97c-3.14,8.36-24.92,23.78-52.01,30.53
		C1043.59,666.39,908.88,698.19,908.88,698.19z"/>
	<path class="st20" d="M456.41,754.88l-214.59-27.88c-10.1-1.31-19.06,6.55-19.06,16.74v44.69c0,16.17,12.34,29.66,28.45,31.1
		l134.68,12.04c7.39,0.66,14.78-1.32,20.81-5.65c8.22-5.91,19.67-15.66,27.83-28.71C448.65,774.65,456.41,754.88,456.41,754.88z"/>
	<path class="st20" d="M893.7,754.88l214.59-27.88c10.1-1.31,19.06,6.55,19.06,16.74v44.69c0,16.17-12.34,29.66-28.45,31.1
		l-134.68,12.04c-7.39,0.66-14.78-1.32-20.81-5.65c-8.22-5.91-19.67-15.66-27.83-28.71C901.47,774.65,893.7,754.88,893.7,754.88z"/>
	<g>
		<path class="st7" d="M218.76,736.29c1.35-5.55,3.84-10.9,7.54-15.33c1.85-2.21,4.05-4.17,6.54-5.66c2.48-1.52,5.27-2.53,8.15-3.04
			c2.92-0.43,5.8-0.33,8.67-0.25c1.44,0.05,2.87,0.11,4.3,0.21c1.43,0.08,2.86,0.18,4.29,0.3c5.72,0.45,11.42,1.04,17.11,1.69
			c11.39,1.29,22.73,2.92,34.06,4.61c11.33,1.69,22.64,3.5,33.93,5.39c11.29,1.95,22.56,3.99,33.81,6.16
			c5.62,1.09,11.24,2.21,16.85,3.43c2.8,0.6,5.62,1.28,8.38,2c2.76,0.73,5.53,1.4,8.31,2.08c11.13,2.64,22.31,5.06,33.51,7.44
			c11.18,2.44,22.4,4.75,33.6,7.12c-22.56-3.93-45.07-8.15-67.45-13.06c-2.8-0.63-5.59-1.26-8.38-1.95
			c-2.78-0.69-5.53-1.35-8.33-1.93c-5.59-1.19-11.2-2.28-16.82-3.33c-11.24-2.11-22.52-4.08-33.8-5.98
			c-22.55-3.9-45.16-7.46-67.84-10.45c-5.67-0.74-11.35-1.42-17.03-1.96c-1.42-0.14-2.84-0.27-4.27-0.37
			c-1.42-0.12-2.85-0.21-4.27-0.28c-2.84-0.13-5.72-0.26-8.47,0.09c-2.77,0.42-5.48,1.31-7.92,2.72c-2.45,1.38-4.65,3.23-6.52,5.36
			c-1.89,2.12-3.47,4.51-4.78,7.04C220.6,730.87,219.51,733.53,218.76,736.29z"/>
	</g>
	<path class="st7" d="M954.41,752.45c0,0,132.35-19.45,140.47-19.1c8.12,0.35,14.18-0.35,16.62,14.82
		c2.44,15.18,7.73,37.44,2.79,46.07c-4.94,8.63-10.94,15.69-36.71,19.57c-25.76,3.88-64.94,5.29-74.82,2.47
		c-9.88-2.82-23.65-3.15-34.24-22.04s-18.71-29.49-19.06-33.72C949.12,756.29,954.41,752.45,954.41,752.45z"/>
	<path class="st7" d="M398.47,752.45c0,0-132.35-19.45-140.47-19.1c-8.12,0.35-14.18-0.35-16.62,14.82
		c-2.44,15.18-7.73,37.44-2.79,46.07c4.94,8.63,10.94,15.69,36.71,19.57c25.76,3.88,64.94,5.29,74.82,2.47s23.65-3.15,34.24-22.04
		c10.59-18.9,18.71-29.49,19.06-33.72S398.47,752.45,398.47,752.45z"/>
	<g>
		<path class="st7" d="M227.87,805.54c1.33-1.38,2.8-2.59,4.3-3.75c1.51-1.14,3.06-2.24,4.75-3.15c-1.33,1.39-2.79,2.59-4.3,3.75
			C231.11,803.53,229.56,804.63,227.87,805.54z"/>
	</g>
	<g>
		<path class="st7" d="M364.38,813c3.15,1,6.22,2.18,9.27,3.43c3.05,1.23,6.04,2.57,9.03,3.93c2.97,1.39,5.93,2.81,8.85,4.33
			c2.92,1.51,5.81,3.09,8.61,4.84c-3.15-1-6.23-2.18-9.27-3.42c-3.05-1.23-6.04-2.57-9.03-3.93c-2.97-1.4-5.93-2.81-8.85-4.33
			C370.07,816.33,367.18,814.75,364.38,813z"/>
	</g>
	<g>
		<path class="st7" d="M954.35,831.71c2.48-1.92,5.06-3.66,7.67-5.35c2.61-1.7,5.27-3.29,7.95-4.87c2.7-1.54,5.4-3.07,8.17-4.49
			c2.76-1.43,5.56-2.8,8.45-4c-2.48,1.92-5.06,3.67-7.67,5.35c-2.61,1.7-5.27,3.29-7.95,4.87c-2.7,1.54-5.41,3.06-8.17,4.49
			C960.04,829.14,957.25,830.51,954.35,831.71z"/>
	</g>
	<g>
		<path class="st7" d="M1123.44,803.57c-1.78-0.47-3.43-1.21-5.04-2.02c-1.6-0.83-3.16-1.73-4.58-2.91
			c1.78,0.47,3.43,1.21,5.04,2.02C1120.45,801.5,1122.02,802.4,1123.44,803.57z"/>
	</g>
	<g>
		<path class="st7" d="M872.19,752.45c11.33-2.62,22.7-5.08,34.06-7.58l34.15-7.19c22.78-4.71,45.62-9.13,68.52-13.29
			c11.46-2.03,22.95-3.91,34.49-5.52c5.79-0.79,11.56-1.43,17.32-2.15c5.77-0.72,11.52-1.5,17.28-2.28
			c5.76-0.79,11.5-1.68,17.29-2.39c2.9-0.34,5.81-0.67,8.78-0.61c2.96,0.03,5.94,0.67,8.68,1.72c5.47,2.06,10.75,4.99,14.76,9.33
			c1.96,2.18,3.57,4.75,4.27,7.62c0.65,2.84,1.2,5.69,1.81,8.54c-0.7-2.82-1.36-5.66-2.1-8.46c-0.76-2.79-2.39-5.25-4.36-7.33
			c-4.03-4.14-9.28-6.89-14.7-8.77c-2.71-0.97-5.5-1.53-8.37-1.52c-2.86-0.01-5.73,0.36-8.6,0.74c-5.74,0.8-11.48,1.79-17.23,2.66
			c-5.75,0.89-11.51,1.74-17.28,2.47c-5.77,0.75-11.56,1.43-17.29,2.24c-11.49,1.66-22.95,3.6-34.39,5.68
			c-22.9,3.99-45.73,8.44-68.57,12.82L872.19,752.45z"/>
	</g>
	<g>
		<path class="st7" d="M409.82,831.71c17.82-17.24,35.67-34.45,53.63-51.53c4.5-4.27,9.02-8.5,13.56-12.73
			c2.28-2.11,4.55-4.21,6.86-6.29c1.14-1.05,2.34-2.06,3.51-3.08c1.22-0.98,2.46-1.96,3.78-2.82c2.62-1.74,5.4-3.21,8.28-4.45
			c2.9-1.2,5.87-2.2,8.88-3.02c6.05-1.6,12.23-2.54,18.43-3.13c6.2-0.57,12.44-0.73,18.63-0.82l18.59-0.25l37.19-0.4l74.38-0.6
			c24.79-0.1,49.59-0.15,74.38-0.1c12.4,0.03,24.79,0.07,37.19,0.18c12.4,0.13,24.79,0.22,37.21,0.8c1.55,0.07,3.1,0.19,4.68,0.33
			c1.65,0.17,3.11,0.54,4.63,0.82c3.03,0.58,6.11,1.06,9.15,1.91c6.12,1.65,11.61,5.04,16.47,8.9c4.91,3.86,9.41,8.16,13.84,12.51
			l13.35,12.94l53.25,51.92l-53.94-51.22l-13.45-12.84c-4.44-4.3-8.95-8.54-13.82-12.32c-4.84-3.78-10.16-7-16.07-8.55
			c-2.94-0.8-5.99-1.25-9.05-1.82c-1.52-0.27-3.09-0.65-4.53-0.77c-1.51-0.12-3.05-0.23-4.59-0.29c-6.17-0.26-12.37-0.35-18.56-0.43
			l-18.59-0.18c-12.39-0.08-24.79-0.1-37.18-0.09c-24.79,0.02-49.58,0.13-74.37,0.28l-74.37,0.42l-37.18,0.31l-18.59,0.19
			c-6.2,0.05-12.37,0.16-18.52,0.68c-6.14,0.53-12.26,1.43-18.21,2.95c-2.97,0.79-5.89,1.74-8.73,2.9c-2.82,1.19-5.55,2.6-8.1,4.27
			c-1.29,0.82-2.49,1.76-3.69,2.71c-1.17,1.01-2.35,1.99-3.5,3.03c-2.32,2.05-4.6,4.14-6.89,6.22l-13.66,12.61
			C445.94,797.74,427.86,814.71,409.82,831.71z"/>
	</g>
	<g>
		<path class="st7" d="M414.53,664.91c18.93,11.19,38.97,20.42,59.5,28.18l7.73,2.83c2.58,0.93,5.2,1.75,7.8,2.63l3.91,1.3
			c1.31,0.42,2.63,0.78,3.94,1.18l7.89,2.32l7.97,2.04l3.99,1.01c1.33,0.32,2.68,0.57,4.02,0.86l8.05,1.69
			c2.69,0.53,5.41,0.9,8.11,1.36c5.39,0.97,10.86,1.53,16.3,2.2c2.72,0.35,5.45,0.6,8.19,0.87l8.2,0.8
			c5.47,0.48,10.95,0.85,16.42,1.28l16.45,0.98c21.94,1.12,43.91,1.62,65.89,1.69c21.97,0.12,43.95-0.19,65.9-1.03
			c21.95-0.85,43.89-2.22,65.71-4.66c10.91-1.21,21.75-2.95,32.55-4.91c10.76-2.14,21.51-4.45,32.08-7.41
			c10.59-2.88,21.09-6.15,31.38-10.01c5.13-1.96,10.24-3.97,15.26-6.23c5.02-2.23,9.99-4.6,14.76-7.32
			c-4.73,2.8-9.67,5.24-14.66,7.54c-4.98,2.33-10.07,4.42-15.18,6.46c-10.25,4.01-20.71,7.45-31.29,10.49
			c-10.57,3.08-21.32,5.47-32.1,7.71c-10.81,2.06-21.68,3.9-32.61,5.2c-2.73,0.32-5.46,0.7-8.2,0.98l-8.22,0.81
			c-5.47,0.58-10.97,0.91-16.45,1.35c-10.98,0.78-21.96,1.38-32.95,1.83c-21.98,0.9-43.98,1.28-65.99,1.21
			c-22-0.13-44-0.69-65.97-1.87l-16.47-1.02c-5.48-0.45-10.97-0.83-16.45-1.33c-10.95-1.07-21.91-2.17-32.78-4.07
			c-2.71-0.48-5.44-0.88-8.14-1.43l-8.08-1.76c-1.34-0.3-2.7-0.57-4.03-0.9l-4-1.05l-7.99-2.11l-7.9-2.4
			c-1.32-0.41-2.64-0.78-3.95-1.21l-3.91-1.33c-2.6-0.9-5.22-1.75-7.8-2.7l-7.72-2.92C453.22,685.91,433.29,676.39,414.53,664.91z"
			/>
	</g>
	<g>
		<path class="st7" d="M295.57,460.68c6.18-4.57,12.38-9.19,17.93-14.46c1.37-1.33,2.73-2.67,3.76-4.23
			c0.49-0.81,1.01-1.58,1.48-2.41l1.42-2.51c1.9-3.33,3.71-6.73,5.57-10.1l21.99-40.6l22.16-40.51l11.18-20.2
			c3.79-6.7,7.51-13.44,11.35-20.12c-3.43,6.89-6.99,13.72-10.48,20.58l-10.69,20.47c-7.16,13.63-14.48,27.17-21.76,40.74
			l-11.13,20.24c-3.74,6.73-7.43,13.49-11.28,20.16c-1.94,3.33-3.83,6.68-5.82,9.99l-1.48,2.48c-0.49,0.83-1.07,1.65-1.6,2.47
			c-0.14,0.2-0.26,0.41-0.41,0.61l-0.49,0.56c-0.32,0.37-0.64,0.75-1,1.09c-0.68,0.71-1.38,1.38-2.11,2.02
			c-2.9,2.58-5.97,4.91-9.08,7.19C301.98,456.41,298.8,458.59,295.57,460.68z"/>
	</g>
	<g>
		<path class="st7" d="M962.04,310.98c3.89,6.71,7.68,13.48,11.52,20.22l11.36,20.31l22.52,40.72c7.4,13.63,14.9,27.21,22.37,40.8
			c1.87,3.39,3.75,6.79,5.67,10.14c0.49,0.83,0.96,1.68,1.47,2.5c0.51,0.83,0.97,1.64,1.56,2.36c1.17,1.48,2.59,2.8,3.98,4.12
			c5.69,5.22,11.94,9.84,18.21,14.41c-3.27-2.09-6.48-4.28-9.63-6.55c-3.15-2.28-6.25-4.62-9.22-7.15c-1.47-1.29-2.92-2.6-4.2-4.14
			c-0.65-0.76-1.18-1.63-1.7-2.44c-0.53-0.82-1.02-1.66-1.54-2.48c-2.01-3.33-3.97-6.67-5.93-10.03
			c-3.93-6.7-7.68-13.48-11.48-20.25l-11.32-20.34c-7.4-13.64-14.84-27.25-22.12-40.95l-10.87-20.57
			C969.14,324.78,965.53,317.91,962.04,310.98z"/>
	</g>
	<g>
		<path class="st7" d="M403.07,313.71c2.12-2.98,4.5-5.76,7.03-8.4c1.26-1.33,2.59-2.59,3.96-3.81c1.42-1.2,2.93-2.29,4.55-3.18
			c3.22-1.81,6.66-3.17,10.16-4.22c3.51-1.06,7.08-1.9,10.7-2.38c-1.77,0.45-3.53,0.91-5.27,1.45c-1.74,0.51-3.48,1.05-5.19,1.67
			c-3.42,1.21-6.79,2.58-9.91,4.36c-1.59,0.85-3.04,1.9-4.43,3.03c-1.39,1.16-2.71,2.4-4.04,3.64c-1.32,1.25-2.6,2.54-3.85,3.86
			C405.51,311,404.29,312.35,403.07,313.71z"/>
	</g>
	<g>
		<path class="st7" d="M950.62,316.54c-1.22-1.36-2.44-2.71-3.72-4c-1.25-1.32-2.53-2.61-3.85-3.86c-1.33-1.24-2.65-2.48-4.04-3.64
			c-1.39-1.13-2.84-2.17-4.43-3.03c-3.12-1.78-6.49-3.15-9.91-4.36c-1.71-0.62-3.44-1.15-5.19-1.67c-1.74-0.54-3.5-1-5.27-1.45
			c3.62,0.48,7.19,1.32,10.7,2.38c3.51,1.05,6.94,2.41,10.16,4.22c1.62,0.89,3.13,1.99,4.55,3.18c1.37,1.22,2.7,2.48,3.96,3.81
			C946.12,310.78,948.51,313.57,950.62,316.54z"/>
	</g>
	<path class="st7" d="M1046.85,438.32c0,0,13.24,27.87,16.18,31.91s5.73,7.6,5.73,7.6s-0.42-3.18,1.91-3.53
		c2.33-0.35,60.92-2.47,66.92-2.82s8.47-2.76,10.24-4.91c1.76-2.15,3.88-9.72,3.88-9.72l-89.29-9.72c0,0-3.53-0.71-5.29-4.24
		C1055.35,439.35,1046.85,438.32,1046.85,438.32z"/>
	<path class="st19" d="M1065.18,458.07c0,0-4.08-4.6-4.48-17.31c-0.4-12.71-1.01-24,0-29.29c1.01-5.29,0.69-11.65,16.2-10.59
		c15.51,1.06,36.68-1.41,50.45,4.59s22.59,16.24,26.48,31.41c3.88,15.18,6.71,19.44-6.71,21.19
		C1133.71,459.82,1065.18,458.07,1065.18,458.07z"/>
	<path class="st22" d="M1111.5,403c0,0,10.19,12.67,15.85,26.81s10.24,29.04,10.24,29.04"/>
	<path class="st7" d="M306.76,437.97c0,0-13.44,27.87-16.43,31.91c-2.98,4.04-5.82,7.6-5.82,7.6s0.43-3.18-1.94-3.53
		c-2.36-0.35-61.84-2.47-67.93-2.82s-8.6-2.76-10.39-4.91c-1.79-2.15-3.94-9.72-3.94-9.72l90.64-9.72c0,0,3.58-0.71,5.37-4.24
		C298.14,439,306.76,437.97,306.76,437.97z"/>
	<path class="st19" d="M286.85,457.72c0,0,4.08-4.6,4.48-17.31c0.4-12.71,1.01-24,0-29.29s-0.69-11.65-16.2-10.59
		c-15.51,1.06-36.68-1.41-50.45,4.59c-13.77,6-22.59,16.24-26.48,31.41c-3.88,15.18-6.71,19.44,6.71,21.19
		C218.33,459.47,286.85,457.72,286.85,457.72z"/>
	<path class="st23" d="M392.4,671.19c0,0-28.32-79.06-47.38-89.65c-19.06-10.59-71.29-38.12-84-34.59
		c-12.71,3.53-21.18-1.94-24,26.56c-2.82,28.5-2.86,44.77,4.24,53.91C252.55,641.98,392.4,671.19,392.4,671.19z"/>
	<path class="st23" d="M958.36,667.8c0,0,28.32-77.1,47.38-87.43c19.06-10.33,71.29-37.18,84-33.73c12.71,3.44,21.18-1.89,24,25.9
		c2.82,27.8,2.86,43.66-4.24,52.58C1098.21,639.31,958.36,667.8,958.36,667.8z"/>
	<path class="st24" d="M281.3,566.14c6.74,3.9,19.01,8.38,23.35,15.09c5.18,8,5.16,61.8,5.39,64.92c0.01,0.12,0.2,1.56,0.32,2.79
		c0.13-0.27,0.49,1,0.07,1.71c0.01,0.05,0.01,0.09,0.02,0.15c0.06,0.43,0.13,0.87,0.19,1.3c39.81,10.32,81.76,19.08,81.76,19.08
		s-28.32-79.06-47.38-89.65c-19.06-10.59-71.29-38.12-84-34.59c-5.23,1.45-9.74,1.38-13.44,2.78
		C259.25,554.57,270.31,559.79,281.3,566.14z"/>
	<path class="st24" d="M1069.47,564.29c-6.74,3.9-19.01,8.38-23.35,15.09c-5.18,8-5.16,61.8-5.39,64.92
		c-0.01,0.12-0.2,1.56-0.32,2.79c-0.14-0.27-0.49,1-0.07,1.71c-0.01,0.05-0.01,0.09-0.02,0.15c-0.06,0.43-0.13,0.87-0.19,1.3
		c-39.81,10.32-81.76,19.08-81.76,19.08s28.32-79.06,47.38-89.65c19.06-10.59,71.29-38.12,84-34.59c5.23,1.45,9.74,1.38,13.44,2.78
		C1091.51,552.72,1080.46,557.94,1069.47,564.29z"/>
	<path class="st22" d="M240.53,402.65c0,0-10.19,12.67-15.85,26.81c-5.65,14.13-10.24,29.04-10.24,29.04"/>
	<circle class="st25" cx="1011.89" cy="621.51" r="9.18"/>
	<circle class="st25" cx="1012.52" cy="622.12" r="21.27"/>
	<g>
		<g>
			<path class="st7" d="M1088.8,600.52c0.03,3.1-1.21,6.18-3.36,8.45c-2.13,2.29-5.22,3.75-8.45,3.86
				c-3.22,0.13-6.54-1.06-8.96-3.35c-1.19-1.15-2.18-2.53-2.84-4.07c-0.65-1.54-1-3.21-1.01-4.89c0.01-1.67,0.36-3.35,1.01-4.89
				c0.65-1.54,1.65-2.92,2.84-4.07c2.41-2.29,5.74-3.48,8.96-3.35c3.23,0.11,6.32,1.57,8.45,3.86
				C1087.6,594.34,1088.83,597.42,1088.8,600.52z M1088.8,600.52c-0.02-1.55-0.33-3.09-0.93-4.51c-0.61-1.42-1.52-2.69-2.62-3.75
				c-2.23-2.1-5.29-3.19-8.25-3.06c-2.97,0.11-5.79,1.46-7.74,3.57c-1.97,2.09-3.09,4.9-3.07,7.74c-0.02,2.84,1.1,5.66,3.07,7.75
				c1.95,2.11,4.77,3.46,7.75,3.57c2.96,0.13,6.02-0.96,8.25-3.06c1.1-1.06,2.02-2.33,2.62-3.75
				C1088.47,603.6,1088.79,602.06,1088.8,600.52z"/>
		</g>
	</g>
	<g>
		<g>
			<path class="st7" d="M1104.21,600.52c0.04,7.16-2.86,14.28-7.9,19.41c-2.51,2.57-5.52,4.67-8.84,6.11
				c-3.32,1.44-6.93,2.22-10.57,2.29c-7.29,0.15-14.64-2.72-19.92-7.89c-2.63-2.58-4.77-5.69-6.2-9.1
				c-1.43-3.41-2.17-7.12-2.19-10.82c0.01-3.7,0.76-7.41,2.19-10.82c1.43-3.42,3.57-6.52,6.2-9.1c5.28-5.18,12.64-8.04,19.92-7.89
				c3.64,0.07,7.26,0.85,10.57,2.29c3.32,1.44,6.33,3.54,8.84,6.11C1101.35,586.24,1104.25,593.36,1104.21,600.52z M1104.21,600.52
				c-0.02-3.58-0.73-7.14-2.12-10.44c-1.38-3.29-3.45-6.28-5.98-8.78c-5.1-4.99-12.19-7.74-19.21-7.6
				c-3.51,0.07-6.99,0.82-10.19,2.21c-3.2,1.39-6.09,3.42-8.52,5.89c-4.85,4.95-7.65,11.8-7.61,18.7
				c-0.04,6.9,2.75,13.75,7.61,18.71c4.81,5,11.67,8.01,18.71,8.11c7.03,0.14,14.12-2.61,19.21-7.6c2.54-2.49,4.6-5.48,5.98-8.78
				C1103.48,607.66,1104.19,604.09,1104.21,600.52z"/>
		</g>
	</g>
	<g>
		<g>
			<path class="st7" d="M285.54,599.89c0.03,3.05-1.19,6.08-3.31,8.32c-2.1,2.26-5.13,3.69-8.32,3.8c-3.17,0.13-6.44-1.04-8.83-3.3
				c-1.18-1.13-2.15-2.49-2.8-4.01c-0.64-1.52-0.98-3.17-1-4.82c0.01-1.65,0.35-3.3,1-4.82c0.64-1.52,1.62-2.88,2.8-4.01
				c2.38-2.26,5.66-3.43,8.83-3.3c3.18,0.11,6.22,1.55,8.32,3.81C284.36,593.81,285.57,596.84,285.54,599.89z M285.54,599.89
				c-0.02-1.52-0.33-3.04-0.92-4.43c-0.6-1.4-1.5-2.65-2.58-3.69c-2.2-2.07-5.21-3.13-8.12-3c-2.92,0.11-5.69,1.44-7.61,3.51
				c-1.93,2.05-3.04,4.82-3.02,7.61c-0.02,2.79,1.08,5.56,3.01,7.61c1.91,2.08,4.69,3.4,7.61,3.51c2.91,0.13,5.92-0.93,8.12-3
				c1.08-1.04,1.99-2.29,2.58-3.69C285.22,602.93,285.53,601.41,285.54,599.89z"/>
		</g>
	</g>
	<g>
		<g>
			<path class="st7" d="M302.06,600.44c0.05,7.14-2.83,14.24-7.83,19.41c-2.5,2.58-5.48,4.72-8.8,6.19
				c-3.31,1.48-6.94,2.29-10.6,2.39c-7.33,0.21-14.79-2.61-20.17-7.81c-2.67-2.6-4.86-5.74-6.32-9.19
				c-1.46-3.46-2.22-7.22-2.24-10.97c0.02-3.76,0.78-7.51,2.24-10.98c1.46-3.46,3.65-6.59,6.32-9.2c5.38-5.21,12.85-8.02,20.17-7.82
				c3.66,0.1,7.29,0.91,10.6,2.39c3.32,1.47,6.31,3.61,8.8,6.19C299.23,586.2,302.1,593.3,302.06,600.44z M302.06,600.44
				c-0.03-3.57-0.75-7.12-2.13-10.4c-1.39-3.28-3.46-6.24-6-8.71c-5.11-4.93-12.17-7.58-19.11-7.37c-3.47,0.1-6.9,0.87-10.03,2.28
				c-3.14,1.39-5.95,3.43-8.32,5.86c-4.73,4.89-7.43,11.59-7.39,18.34c-0.04,6.75,2.66,13.46,7.39,18.35
				c2.36,2.44,5.18,4.47,8.32,5.87c3.13,1.4,6.56,2.18,10.03,2.27c6.94,0.2,14-2.45,19.11-7.38c2.53-2.47,4.61-5.43,6-8.71
				C301.31,607.56,302.03,604.01,302.06,600.44z"/>
		</g>
	</g>
	<circle class="st25" cx="338.97" cy="621.4" r="20.56"/>
	<circle class="st25" cx="338.97" cy="620.45" r="9.24"/>
</g>
<g id="Слой_4">
	<path class="st7" d="M422.88,607.07c0,0-2.12-19.83,5.29-25.83c7.41-6,61.41-11.29,134.47-13.41
		c73.06-2.12,303.88-1.94,340.94,5.38c37.06,7.32,30.71,6.26,32.82,28.5c2.12,22.24-32.82,77.29-51.88,81.53
		s-154.59,6.63-223.41,4.91s-175.76,1.45-194.82-10.2C447.24,666.29,422.88,607.07,422.88,607.07z"/>
	<line class="st26" x1="428.18" y1="583.24" x2="932.42" y2="583.24"/>
	<line class="st26" x1="422.41" y1="600.3" x2="936.41" y2="601.71"/>
	<line class="st26" x1="426.05" y1="614.42" x2="932.42" y2="615.81"/>
	<line class="st26" x1="434.34" y1="632.04" x2="927.35" y2="633.4"/>
	<line class="st26" x1="441.38" y1="645.46" x2="919.93" y2="646.77"/>
	<line class="st26" x1="451.34" y1="661.76" x2="908.88" y2="663.02"/>
	<line class="st26" x1="469.7" y1="679.54" x2="890.39" y2="680.7"/>
	<path class="st7" d="M1109.52,848.76H241.25c-3.31,0-6-2.69-6-6l0,0c0-3.31,2.69-6,6-6h868.27c3.31,0,6,2.69,6,6l0,0
		C1115.52,846.08,1112.83,848.76,1109.52,848.76z"/>
	<path class="st10" d="M424.68,829.53c0,0,45.85-42.88,55.26-52.29c9.41-9.41,21.65-19.29,40.94-20.71
		c19.29-1.41,105.88-5.18,144.47-3.76c38.59,1.41,136.68,0.79,169.96,4.78c22.98,2.75,54.04,37.11,54.04,37.11l43.07,41.4
		L424.68,829.53z"/>
	<g>
		<polygon class="st7" points="446.56,809 503.78,808.51 560.99,808.23 675.42,808 789.85,808.23 847.07,808.51 904.28,809 
			847.07,809.49 789.85,809.77 675.42,810 560.99,809.77 503.78,809.49 		"/>
	</g>
	<g>
		<polygon class="st7" points="456.41,798.65 511.07,798.16 565.73,797.88 675.06,797.65 784.38,797.88 839.04,798.16 893.7,798.65 
			839.04,799.14 784.38,799.42 675.06,799.65 565.73,799.41 511.07,799.13 		"/>
	</g>
	<g>
		<polygon class="st7" points="467.24,788.29 519.41,787.81 571.59,787.53 675.94,787.3 780.29,787.52 832.47,787.8 884.65,788.29 
			832.47,788.78 780.29,789.06 675.94,789.29 571.59,789.06 519.41,788.78 		"/>
	</g>
	<g>
		<polygon class="st7" points="477.82,778.18 527.12,777.69 576.41,777.41 675.01,777.18 773.6,777.41 822.89,777.69 872.19,778.18 
			822.89,778.67 773.6,778.95 675.01,779.18 576.41,778.94 527.12,778.66 		"/>
	</g>
	<g>
		<polygon class="st7" points="490.38,768.06 536.46,767.57 582.55,767.29 674.72,767.06 766.89,767.29 812.97,767.57 
			859.06,768.06 812.97,768.55 766.89,768.83 674.72,769.06 582.55,768.82 536.46,768.55 		"/>
	</g>
	<g>
		<path class="st7" d="M509.8,758.41c13.94-0.23,27.88-0.32,41.83-0.49l41.83-0.28l83.65-0.23l83.65,0.23l41.83,0.28
			c13.94,0.17,27.88,0.26,41.83,0.49c-13.94,0.23-27.88,0.32-41.83,0.49l-41.83,0.28l-83.65,0.23l-83.65-0.23l-41.83-0.28
			C537.69,758.73,523.74,758.64,509.8,758.41z"/>
	</g>
	<path class="st7" d="M218.76,674.65c0,0,1.88-44.71,4-59.53c2.12-14.82,7.76-51.53,7.76-51.53"/>
	<g>
		<path class="st7" d="M443.71,701.1c-13.57-2.11-27.04-4.63-40.48-7.33c-13.45-2.71-26.83-5.55-40.21-8.89l-19.82-5.49
			c-6.59-1.9-13.19-3.74-19.76-5.71c-13.15-3.88-26.26-7.89-39.27-12.28c13.44,2.79,26.78,5.96,40.08,9.27
			c6.66,1.62,13.28,3.38,19.92,5.06l19.86,5.28c6.57,1.74,13.26,3.27,19.91,4.87c6.65,1.63,13.32,3.18,19.97,4.85
			C417.21,694.01,430.49,697.38,443.71,701.1z"/>
	</g>
	<g>
		<path class="st7" d="M228.87,614.12c0.34-2.79,0.71-5.59,1.1-8.38c0.4-2.79,0.84-5.57,1.28-8.35c0.89-5.56,1.86-11.12,2.93-16.65
			c1.11-5.53,2.34-11.05,3.83-16.52c0.75-2.74,1.59-5.46,2.63-8.16c0.52-1.35,1.1-2.69,1.83-4.02c0.37-0.66,0.77-1.33,1.31-1.98
			c0.27-0.33,0.57-0.65,0.95-0.97c0.17-0.16,0.42-0.31,0.64-0.45l0.49-0.27c2.53-1.39,5.18-2.63,8.02-3.51
			c2.83-0.88,5.84-1.34,8.84-1.29c3,0.07,5.98,0.55,8.8,1.49c2.74,0.88,5.39,1.85,8.05,2.84c10.58,4.02,20.95,8.48,31.2,13.24
			c5.11,2.42,10.17,4.95,15.17,7.63c4.98,2.71,9.93,5.5,14.65,8.81c2.35,1.66,4.66,3.4,6.79,5.52c0.51,0.56,1.07,1.11,1.52,1.67
			l1.36,1.68c0.93,1.1,1.74,2.27,2.61,3.41c3.38,4.59,6.45,9.35,9.4,14.18c5.92,9.63,11.3,19.55,16.41,29.61
			c2.51,5.05,4.94,10.15,7.15,15.34c2.18,5.19,4.43,10.41,5.62,15.94c-0.79-2.7-1.84-5.31-3-7.87c-1.14-2.57-2.34-5.1-3.58-7.63
			c-2.47-5.04-5.16-9.97-7.92-14.86c-2.74-4.9-5.55-9.77-8.44-14.58c-2.89-4.81-5.81-9.6-8.88-14.29
			c-3.07-4.68-6.21-9.31-9.56-13.74c-0.86-1.09-1.67-2.22-2.58-3.25l-1.33-1.58c-0.44-0.53-0.9-0.95-1.34-1.43
			c-1.89-1.83-4.12-3.45-6.38-5c-9.17-6.14-19.26-11.15-29.36-15.93c-10.12-4.79-20.44-9.24-30.85-13.33
			c-2.6-1.02-5.22-2.02-7.82-2.91c-2.5-0.88-5.14-1.35-7.76-1.45c-5.26-0.2-10.46,1.52-15.31,4.05l-0.44,0.23
			c-0.07,0.06-0.14,0.07-0.23,0.15c-0.17,0.13-0.36,0.32-0.54,0.53c-0.37,0.42-0.72,0.96-1.05,1.51c-0.66,1.12-1.24,2.35-1.76,3.61
			c-1.06,2.53-1.94,5.17-2.8,7.82c-1.68,5.32-3.09,10.75-4.43,16.2C233.35,592.06,231.11,603.08,228.87,614.12z"/>
	</g>
	<path class="st7" d="M1131.78,674.65c0,0-1.88-44.71-4-59.53c-2.12-14.82-7.76-51.53-7.76-51.53"/>
	<g>
		<path class="st7" d="M906.83,701.1c13.21-3.72,26.5-7.09,39.81-10.36c6.64-1.67,13.32-3.22,19.97-4.85
			c6.65-1.61,13.34-3.13,19.91-4.87l19.86-5.28c6.64-1.69,13.26-3.45,19.92-5.06c13.3-3.31,26.63-6.48,40.08-9.27
			c-13,4.39-26.12,8.41-39.27,12.28c-6.57,1.98-13.17,3.81-19.76,5.71l-19.82,5.49c-13.38,3.34-26.76,6.18-40.21,8.89
			C933.88,696.47,920.4,698.99,906.83,701.1z"/>
	</g>
	<g>
		<path class="st7" d="M1121.67,614.12c-2.24-11.03-4.48-22.06-7.22-32.96c-1.34-5.45-2.75-10.88-4.43-16.2
			c-0.85-2.65-1.74-5.29-2.8-7.82c-0.53-1.26-1.11-2.49-1.76-3.61c-0.33-0.55-0.68-1.09-1.05-1.51c-0.18-0.21-0.37-0.4-0.54-0.53
			c-0.09-0.09-0.16-0.09-0.23-0.15l-0.44-0.23c-4.85-2.53-10.05-4.25-15.31-4.05c-2.62,0.11-5.26,0.57-7.76,1.45
			c-2.6,0.88-5.22,1.89-7.82,2.91c-10.42,4.1-20.73,8.54-30.85,13.33c-10.11,4.78-20.19,9.79-29.36,15.93
			c-2.27,1.54-4.49,3.17-6.38,5c-0.44,0.48-0.9,0.9-1.34,1.43l-1.33,1.58c-0.9,1.03-1.72,2.17-2.58,3.25
			c-3.35,4.43-6.5,9.06-9.56,13.74c-3.07,4.69-5.99,9.48-8.88,14.29c-2.89,4.81-5.7,9.67-8.44,14.58
			c-2.76,4.89-5.45,9.82-7.92,14.86c-1.24,2.52-2.44,5.06-3.58,7.63c-1.17,2.56-2.21,5.16-3,7.87c1.19-5.52,3.44-10.75,5.62-15.94
			c2.21-5.19,4.64-10.29,7.15-15.34c5.1-10.06,10.49-19.98,16.41-29.61c2.95-4.82,6.02-9.59,9.4-14.18c0.87-1.14,1.68-2.3,2.61-3.41
			l1.36-1.68c0.45-0.56,1.02-1.11,1.52-1.67c2.13-2.12,4.44-3.86,6.79-5.52c4.71-3.3,9.66-6.09,14.65-8.81
			c5-2.68,10.06-5.2,15.17-7.63c10.25-4.77,20.62-9.22,31.2-13.24c2.65-0.99,5.31-1.96,8.05-2.84c2.82-0.94,5.8-1.42,8.8-1.49
			c3-0.05,6.02,0.41,8.84,1.29c2.83,0.88,5.49,2.12,8.02,3.51l0.49,0.27c0.21,0.14,0.47,0.29,0.64,0.45
			c0.38,0.31,0.68,0.64,0.95,0.97c0.54,0.65,0.94,1.32,1.31,1.98c0.73,1.33,1.31,2.67,1.83,4.02c1.04,2.7,1.88,5.42,2.63,8.16
			c1.5,5.48,2.72,10.99,3.83,16.52c1.08,5.54,2.04,11.09,2.93,16.65c0.44,2.78,0.88,5.56,1.28,8.35
			C1120.95,608.53,1121.33,611.32,1121.67,614.12z"/>
	</g>
	<g>
		<path class="st7" d="M945.35,656.76c4.43-8.15,8.94-16.26,13.51-24.34c4.59-8.06,9.26-16.08,14.03-24.05
			c4.77-7.96,9.67-15.85,14.87-23.55c2.62-3.84,5.28-7.65,8.3-11.23c0.78-0.87,1.54-1.77,2.44-2.56c0.41-0.42,0.92-0.78,1.44-1.13
			c0.51-0.35,1.02-0.58,1.53-0.87l6.12-3.31c8.2-4.34,16.5-8.53,25-12.3c4.25-1.88,8.54-3.67,12.91-5.26
			c4.37-1.62,8.83-2.9,13.23-4.35l13.24-4.29c4.42-1.41,8.86-2.79,13.37-3.91c2.26-0.54,4.54-1.02,6.86-1.27
			c2.32-0.24,4.67-0.16,6.98,0.16c2.31,0.32,4.57,0.93,6.72,1.83c2.11,0.93,4.24,2.1,5.61,4c-1.4-1.88-3.54-3-5.65-3.89
			c-2.15-0.86-4.41-1.42-6.7-1.7c-2.29-0.28-4.62-0.31-6.9-0.04c-2.29,0.28-4.55,0.81-6.79,1.38c-4.48,1.16-8.89,2.58-13.3,4.03
			l-13.19,4.42c-4.4,1.5-8.85,2.82-13.18,4.43c-4.34,1.6-8.61,3.39-12.84,5.28c-8.45,3.78-16.72,7.99-24.9,12.35l-6.13,3.29
			c-0.49,0.28-1.05,0.54-1.5,0.85c-0.44,0.3-0.89,0.6-1.29,1.01c-0.85,0.73-1.6,1.61-2.37,2.46c-2.98,3.51-5.66,7.3-8.27,11.11
			c-5.22,7.66-10.1,15.54-14.96,23.44c-4.84,7.91-9.58,15.88-14.26,23.89C954.57,640.66,949.93,648.69,945.35,656.76z"/>
	</g>
	<g>
		<path class="st7" d="M403.07,654.53c-4.62-7.93-9.31-15.82-14.06-23.68c-4.72-7.87-9.51-15.7-14.39-23.47
			c-4.91-7.75-9.84-15.49-15.12-22.99c-2.65-3.73-5.34-7.46-8.4-10.82c-0.39-0.41-0.78-0.82-1.18-1.22
			c-0.42-0.36-0.82-0.76-1.25-1.1c-0.83-0.63-1.91-1.13-2.91-1.67l-6.1-3.18c-8.14-4.22-16.38-8.27-24.78-11.92
			c-4.21-1.82-8.45-3.54-12.77-5.07c-4.31-1.52-8.72-2.82-13.08-4.26c-8.74-2.81-17.4-5.88-26.28-8.15
			c-2.22-0.55-4.46-1.04-6.73-1.31c-2.26-0.25-4.56-0.21-6.83,0.06c-2.27,0.27-4.51,0.82-6.64,1.65c-2.1,0.86-4.23,1.94-5.64,3.78
			c1.38-1.86,3.5-2.99,5.6-3.89c2.13-0.87,4.37-1.47,6.66-1.78c2.28-0.32,4.6-0.4,6.9-0.18c2.3,0.22,4.56,0.69,6.8,1.2
			c4.48,1.07,8.88,2.4,13.26,3.76l13.13,4.14c4.37,1.4,8.78,2.65,13.13,4.18c4.34,1.53,8.61,3.24,12.84,5.05
			c8.44,3.64,16.71,7.67,24.88,11.87l6.1,3.2c1.01,0.56,2.03,1.01,3.04,1.77c0.47,0.37,0.89,0.78,1.33,1.17
			c0.41,0.41,0.8,0.84,1.21,1.26c3.11,3.45,5.78,7.19,8.44,10.95c5.26,7.54,10.21,15.28,15.02,23.1c4.81,7.82,9.53,15.7,14.16,23.63
			C394.04,638.54,398.59,646.51,403.07,654.53z"/>
	</g>
	<g>
		<path class="st7" d="M264.41,535.35c0.23-4.48,0.71-8.94,1.33-13.38c0.3-2.22,0.69-4.43,1.12-6.64c0.42-2.21,0.93-4.4,1.54-6.57
			c0.6-2.18,1.5-4.28,2.35-6.34c0.87-2.07,1.72-4.14,2.66-6.17c1.84-4.08,3.74-8.14,5.79-12.13l-5.08,12.43l-2.53,6.21
			c-0.83,2.09-1.67,4.13-2.23,6.27c-1.26,4.26-2.07,8.66-2.86,13.06c-0.4,2.2-0.75,4.41-1.09,6.62
			C265.04,530.92,264.74,533.14,264.41,535.35z"/>
	</g>
	<g>
		<path class="st7" d="M1070.67,483.78c2.38,3.96,4.53,8.06,6.55,12.22c1.02,2.08,1.95,4.2,2.84,6.34c0.9,2.14,1.71,4.31,2.43,6.52
			c0.73,2.22,1.14,4.54,1.57,6.79c0.42,2.27,0.86,4.54,1.2,6.83c0.73,4.56,1.39,9.13,1.88,13.73l-2.64-13.59l-1.34-6.78
			c-0.47-2.27-0.9-4.5-1.63-6.67c-1.34-4.38-3.17-8.62-5.01-12.83c-0.92-2.11-1.89-4.2-2.88-6.29
			C1072.69,487.93,1071.67,485.86,1070.67,483.78z"/>
	</g>
	<g>
		<path class="st7" d="M355.12,577.64c3.35,0.84,6.76,1.46,10.2,1.7c1.72,0.11,3.45,0.12,5.15-0.13c1.68-0.26,3.4-0.81,4.49-2.18
			c4.8-4.96,9.51-10.01,14.43-14.87c2.47-2.42,4.95-4.83,7.67-7c0.34-0.28,0.68-0.54,1.05-0.78c0.37-0.24,0.71-0.52,1.14-0.7
			c0.21-0.1,0.41-0.21,0.62-0.29l0.67-0.12c0.45-0.09,0.89-0.16,1.32-0.19c1.73-0.18,3.46-0.27,5.19-0.36
			c6.91-0.32,13.82-0.44,20.73-0.53c13.82-0.11,27.63-0.08,41.46,0.39c1.73,0.05,3.46,0.16,5.19,0.23c1.73,0.11,3.47,0.27,5.18,0.3
			c1.71,0.05,3.42,0.13,5.14,0.15l5.18,0.05c6.9,0.08,13.81,0.06,20.71,0.08c55.24-0.05,110.49-0.32,165.74-0.68l165.75-0.87
			c27.63,0.19,55.25,0.51,82.87,0.59c6.91,0.02,13.8,0.07,20.71-0.14c1.81-0.02,3.57,0.54,5.12,1.36c1.56,0.83,2.97,1.88,4.3,3
			c2.64,2.27,4.97,4.85,7.26,7.44c2.28,2.6,4.5,5.24,6.85,7.77c2.36,2.5,4.8,5,7.79,6.7c0.75,0.4,1.52,0.79,2.35,1.01l1.23,0.37
			c0.42,0.1,0.84,0.16,1.26,0.24c1.69,0.27,3.44,0.3,5.12-0.08c3.36-0.7,6.46-2.63,8.66-5.28c-2.17,2.68-5.25,4.65-8.63,5.4
			c-1.69,0.4-3.46,0.4-5.17,0.14c-0.43-0.08-0.86-0.13-1.28-0.23l-1.25-0.36c-0.84-0.21-1.64-0.6-2.41-1
			c-3.06-1.7-5.54-4.19-7.94-6.67c-2.39-2.51-4.64-5.13-6.95-7.69c-2.31-2.56-4.66-5.09-7.29-7.3c-1.32-1.09-2.71-2.1-4.21-2.87
			c-1.5-0.77-3.15-1.26-4.8-1.23c-6.9,0.29-13.82,0.32-20.72,0.38c-27.63,0.12-55.26-0.03-82.88-0.03c-6.9,0.01-13.82-0.01-20.7,0.1
			c-6.91,0.13-13.82,0.19-20.73,0.26l-41.44,0.37l-82.87,0.6l-82.88,0.28c-27.63,0.04-55.25,0.14-82.88-0.07
			c-6.91-0.06-13.81-0.08-20.73-0.21l-5.18-0.08c-1.73-0.03-3.48-0.13-5.21-0.19c-1.75-0.04-3.45-0.21-5.16-0.33
			c-1.72-0.09-3.44-0.2-5.16-0.27c-13.78-0.56-27.6-0.67-41.4-0.68c-6.9,0.01-13.81,0.05-20.7,0.29c-1.72,0.08-3.44,0.14-5.15,0.3
			c-0.44,0.02-0.84,0.09-1.24,0.16l-0.61,0.1c-0.19,0.07-0.36,0.17-0.55,0.25c-0.37,0.15-0.71,0.41-1.07,0.64
			c-0.36,0.22-0.7,0.48-1.03,0.75c-2.7,2.1-5.21,4.49-7.7,6.87c-4.97,4.79-9.74,9.78-14.6,14.69c-0.3,0.31-0.61,0.61-0.96,0.89
			c-0.36,0.25-0.75,0.47-1.15,0.64c-0.81,0.34-1.67,0.54-2.52,0.66c-1.72,0.23-3.46,0.2-5.19,0.07
			C361.86,579.18,358.45,578.52,355.12,577.64z"/>
	</g>
	<g>
		<path class="st10" d="M958.36,751.87c0.85,3.14,1.59,6.3,2.31,9.46c0.74,3.16,1.39,6.33,2.05,9.51c0.63,3.18,1.27,6.36,1.83,9.56
			l0.83,4.79c0.24,1.61,0.52,3.2,0.73,4.82c-0.43-1.57-0.8-3.15-1.21-4.72l-1.11-4.74c-0.73-3.16-1.39-6.34-2.05-9.51
			c-0.63-3.18-1.27-6.36-1.82-9.56C959.36,758.29,958.81,755.09,958.36,751.87z"/>
	</g>
	<g>
		<path class="st10" d="M972.33,749.84c1.39,5.22,2.67,10.46,3.94,15.71c1.27,5.25,2.45,10.51,3.68,15.76
			c1.15,5.27,2.34,10.53,3.46,15.82l1.65,7.93c0.51,2.65,1.06,5.29,1.54,7.95c-0.71-2.61-1.35-5.23-2.02-7.84l-1.92-7.86
			c-1.27-5.25-2.45-10.51-3.68-15.77c-1.15-5.27-2.35-10.53-3.45-15.82C974.41,760.43,973.32,755.15,972.33,749.84z"/>
	</g>
	<g>
		<path class="st10" d="M988.2,747.54c1.42,5.69,2.72,11.4,4.01,17.11c1.29,5.71,2.5,11.44,3.75,17.16
			c1.18,5.74,2.39,11.47,3.53,17.21l1.68,8.62c0.53,2.88,1.08,5.76,1.58,8.64c-0.72-2.84-1.37-5.7-2.06-8.54l-1.96-8.57
			c-1.29-5.71-2.5-11.44-3.75-17.16c-1.17-5.74-2.39-11.47-3.53-17.21C990.33,759.06,989.22,753.31,988.2,747.54z"/>
	</g>
	<g>
		<path class="st10" d="M1003.49,745.35c1.51,5.99,2.92,12.01,4.31,18.03c1.39,6.02,2.7,12.06,4.05,18.08
			c1.27,6.04,2.59,12.08,3.83,18.13l1.83,9.08c0.58,3.04,1.18,6.06,1.73,9.11c-0.77-2.99-1.47-6-2.21-9l-2.1-9.02
			c-1.39-6.02-2.7-12.06-4.05-18.08c-1.27-6.04-2.59-12.08-3.82-18.13C1005.82,757.48,1004.6,751.43,1003.49,745.35z"/>
	</g>
	<g>
		<path class="st10" d="M1018.53,742.18c1.54,6.26,2.96,12.54,4.37,18.82c1.41,6.28,2.74,12.58,4.11,18.88l3.89,18.92l1.86,9.48
			c0.59,3.17,1.2,6.33,1.76,9.5c-0.78-3.13-1.49-6.27-2.24-9.4l-2.14-9.42l-4.11-18.88c-1.29-6.31-2.63-12.61-3.89-18.92
			C1020.9,754.84,1019.66,748.52,1018.53,742.18z"/>
	</g>
	<g>
		<path class="st10" d="M1034.06,741.02c1.5,6.23,2.88,12.48,4.26,18.74c1.37,6.26,2.66,12.53,4,18.8
			c1.26,6.28,2.55,12.55,3.77,18.84l1.8,9.44c0.57,3.15,1.16,6.3,1.7,9.46c-0.76-3.11-1.45-6.24-2.18-9.36l-2.08-9.38
			c-1.37-6.26-2.66-12.53-3.99-18.8c-1.25-6.28-2.55-12.55-3.77-18.84C1036.35,753.63,1035.15,747.33,1034.06,741.02z"/>
	</g>
	<g>
		<path class="st10" d="M1049.39,738.9c1.53,6.41,2.96,12.84,4.37,19.27c1.41,6.43,2.73,12.88,4.11,19.33l3.88,19.37l1.86,9.7
			c0.58,3.24,1.2,6.48,1.76,9.72c-0.78-3.2-1.49-6.42-2.24-9.63l-2.13-9.65l-4.1-19.33c-1.29-6.46-2.63-12.91-3.88-19.37
			C1051.75,751.86,1050.52,745.39,1049.39,738.9z"/>
	</g>
	<g>
		<path class="st10" d="M1063.47,736.99c1.57,6.33,3.03,12.68,4.48,19.04c1.45,6.36,2.81,12.73,4.22,19.09l4,19.14l1.92,9.59
			c0.6,3.2,1.24,6.4,1.81,9.61c-0.8-3.16-1.53-6.34-2.29-9.51l-2.19-9.53l-4.22-19.09c-1.33-6.38-2.71-12.75-3.99-19.14
			C1065.91,749.8,1064.64,743.4,1063.47,736.99z"/>
	</g>
	<g>
		<path class="st10" d="M1077.39,735.17c1.54,6.22,2.97,12.47,4.38,18.72c1.42,6.25,2.75,12.52,4.12,18.77
			c1.3,6.27,2.64,12.54,3.9,18.82l1.87,9.43c0.59,3.15,1.21,6.29,1.77,9.45c-0.78-3.11-1.5-6.23-2.24-9.35l-2.14-9.37
			c-1.41-6.25-2.75-12.52-4.12-18.77c-1.3-6.27-2.64-12.54-3.9-18.82C1079.77,747.77,1078.52,741.48,1077.39,735.17z"/>
	</g>
	<g>
		<path class="st10" d="M1091,733.35c1.44,5.88,2.77,11.78,4.08,17.68c1.32,5.9,2.55,11.82,3.82,17.74
			c1.2,5.93,2.44,11.85,3.6,17.78l1.72,8.91c0.54,2.98,1.11,5.95,1.61,8.93c-0.73-2.94-1.4-5.89-2.09-8.83l-1.99-8.85
			c-1.31-5.9-2.55-11.82-3.82-17.74c-1.2-5.93-2.44-11.85-3.6-17.78C1093.18,745.25,1092.03,739.31,1091,733.35z"/>
	</g>
	<g>
		<path class="st10" d="M1104.15,734.6c1.15,4.67,2.19,9.36,3.22,14.05c1.03,4.69,1.97,9.4,2.96,14.1
			c0.91,4.72,1.86,9.43,2.73,14.15l1.28,7.09c0.39,2.37,0.82,4.74,1.18,7.11c-0.58-2.33-1.11-4.68-1.66-7.02l-1.56-7.04
			c-1.03-4.69-1.97-9.4-2.95-14.1c-0.91-4.72-1.86-9.43-2.73-14.15C1105.75,744.08,1104.9,739.35,1104.15,734.6z"/>
	</g>
	<g>
		<polygon class="st10" points="949.45,758.41 969.21,755.55 988.97,752.78 1028.52,747.42 1068.1,742.28 1087.91,739.8 
			1107.72,737.41 1087.97,740.28 1068.21,743.04 1028.65,748.41 989.07,753.54 969.27,756.03 		"/>
	</g>
	<g>
		<polygon class="st10" points="952.85,768.06 972.65,765.33 992.47,762.71 1032.12,757.62 1071.79,752.77 1091.64,750.42 
			1111.5,748.18 1091.7,750.9 1071.89,753.53 1032.24,758.61 992.56,763.47 972.71,765.81 		"/>
	</g>
	<g>
		<polygon class="st10" points="958.68,777.59 978.13,774.92 997.6,772.35 1036.54,767.36 1075.52,762.61 1095.02,760.31 
			1114.53,758.12 1095.08,760.8 1075.61,763.37 1036.67,768.35 997.69,773.11 978.19,775.4 		"/>
	</g>
	<g>
		<polygon class="st10" points="965.56,787.26 984.27,784.6 1003,782.03 1040.47,777.06 1077.98,772.33 1096.74,770.04 
			1115.52,767.86 1096.8,770.52 1078.08,773.09 1040.6,778.06 1003.1,782.79 984.33,785.08 		"/>
	</g>
	<g>
		<path class="st10" d="M969.34,795.64c12.2-1.71,24.42-3.31,36.63-4.9l36.67-4.64l36.7-4.41l18.36-2.12l18.37-2.02l-18.31,2.5
			l-18.32,2.4l-36.67,4.63l-36.7,4.4C993.83,792.93,981.59,794.34,969.34,795.64z"/>
	</g>
	<g>
		<path class="st10" d="M976.18,804.52c11.65-1.79,23.31-3.47,34.98-5.14l35.01-4.87l35.04-4.65l17.53-2.24l17.55-2.14l-17.48,2.62
			l-17.49,2.52l-35.01,4.87l-35.04,4.64C999.57,801.65,987.88,803.14,976.18,804.52z"/>
	</g>
	<g>
		<path class="st10" d="M986.25,811.45c10.64-1.64,21.3-3.17,31.96-4.68l32-4.42l32.03-4.19l16.02-2.01l16.04-1.91l-15.97,2.39
			l-15.99,2.29l-32,4.41l-32.03,4.19C1007.63,808.89,996.95,810.22,986.25,811.45z"/>
	</g>
	<g>
		<path class="st10" d="M1006.53,817.01c8.25-1.13,16.52-2.15,24.78-3.15l24.81-2.88l24.84-2.65l12.43-1.24l12.44-1.14l-12.38,1.63
			l-12.4,1.52l-24.81,2.88l-24.84,2.65C1023.11,815.47,1014.83,816.29,1006.53,817.01z"/>
	</g>
	<g>
		<path class="st10" d="M392.61,751.87c-0.44,3.22-1,6.42-1.56,9.61c-0.56,3.2-1.19,6.38-1.82,9.56c-0.66,3.18-1.32,6.35-2.05,9.51
			l-1.11,4.74c-0.4,1.57-0.78,3.15-1.21,4.72c0.21-1.61,0.49-3.21,0.73-4.82l0.83-4.79c0.56-3.2,1.19-6.38,1.83-9.56
			c0.66-3.18,1.32-6.35,2.05-9.51C391.02,758.17,391.76,755.01,392.61,751.87z"/>
	</g>
	<g>
		<path class="st10" d="M378.65,749.84c-0.99,5.31-2.08,10.59-3.19,15.87c-1.11,5.28-2.31,10.54-3.45,15.82
			c-1.23,5.25-2.41,10.52-3.68,15.77l-1.92,7.86c-0.68,2.61-1.32,5.23-2.02,7.84c0.48-2.66,1.03-5.3,1.54-7.95l1.65-7.93
			c1.11-5.28,2.3-10.54,3.46-15.82c1.23-5.25,2.41-10.52,3.68-15.76C375.97,760.3,377.26,755.06,378.65,749.84z"/>
	</g>
	<g>
		<path class="st10" d="M362.77,747.54c-1.01,5.77-2.13,11.52-3.27,17.27c-1.13,5.75-2.35,11.47-3.53,17.21
			c-1.25,5.72-2.46,11.45-3.75,17.16l-1.96,8.57c-0.69,2.85-1.34,5.7-2.06,8.54c0.5-2.89,1.05-5.76,1.58-8.64l1.68-8.62
			c1.14-5.75,2.35-11.47,3.53-17.21c1.25-5.72,2.46-11.45,3.75-17.16C360.05,758.94,361.36,753.23,362.77,747.54z"/>
	</g>
	<g>
		<path class="st10" d="M347.49,745.35c-1.11,6.08-2.33,12.14-3.56,18.19c-1.23,6.05-2.55,12.09-3.82,18.13
			c-1.35,6.03-2.66,12.06-4.05,18.08l-2.1,9.02c-0.74,3-1.44,6.01-2.21,9c0.55-3.04,1.15-6.07,1.73-9.11l1.83-9.08
			c1.23-6.05,2.55-12.09,3.83-18.13c1.35-6.03,2.66-12.06,4.05-18.08C344.57,757.35,345.98,751.34,347.49,745.35z"/>
	</g>
	<g>
		<path class="st10" d="M332.45,742.18c-1.13,6.34-2.37,12.66-3.63,18.98c-1.25,6.32-2.59,12.62-3.89,18.92l-4.11,18.88l-2.14,9.42
			c-0.75,3.13-1.46,6.27-2.24,9.4c0.56-3.17,1.17-6.33,1.76-9.5l1.86-9.48l3.89-18.92c1.37-6.29,2.7-12.59,4.11-18.88
			C329.48,754.71,330.91,748.43,332.45,742.18z"/>
	</g>
	<g>
		<path class="st10" d="M316.92,741.02c-1.09,6.31-2.29,12.61-3.51,18.9c-1.21,6.29-2.51,12.56-3.77,18.84
			c-1.33,6.27-2.62,12.54-3.99,18.8l-2.08,9.38c-0.73,3.12-1.42,6.25-2.18,9.36c0.54-3.16,1.14-6.31,1.7-9.46l1.8-9.44
			c1.22-6.29,2.51-12.56,3.77-18.84c1.33-6.26,2.62-12.54,4-18.8C314.03,753.5,315.42,747.25,316.92,741.02z"/>
	</g>
	<g>
		<path class="st10" d="M301.59,738.9c-1.13,6.49-2.36,12.96-3.62,19.43c-1.25,6.47-2.59,12.91-3.88,19.37l-4.1,19.33l-2.13,9.65
			c-0.75,3.21-1.46,6.42-2.24,9.63c0.55-3.25,1.17-6.48,1.76-9.72l1.86-9.7l3.88-19.37c1.37-6.44,2.69-12.89,4.11-19.33
			C298.63,751.73,300.06,745.3,301.59,738.9z"/>
	</g>
	<g>
		<path class="st10" d="M287.51,736.99c-1.17,6.42-2.44,12.81-3.73,19.2c-1.29,6.39-2.67,12.76-3.99,19.14l-4.22,19.09l-2.19,9.53
			c-0.77,3.17-1.5,6.34-2.29,9.51c0.57-3.21,1.21-6.41,1.81-9.61l1.92-9.59l4-19.14c1.41-6.36,2.77-12.74,4.22-19.09
			C284.47,749.67,285.94,743.32,287.51,736.99z"/>
	</g>
	<g>
		<path class="st10" d="M273.59,735.17c-1.13,6.31-2.38,12.59-3.64,18.88c-1.26,6.28-2.6,12.55-3.9,18.82
			c-1.37,6.26-2.71,12.52-4.12,18.77l-2.14,9.37c-0.75,3.12-1.47,6.24-2.24,9.35c0.56-3.16,1.18-6.3,1.77-9.45l1.87-9.43
			c1.26-6.28,2.6-12.55,3.9-18.82c1.38-6.26,2.71-12.52,4.12-18.77C270.62,747.64,272.05,741.4,273.59,735.17z"/>
	</g>
	<g>
		<path class="st10" d="M259.98,733.35c-1.03,5.96-2.18,11.9-3.33,17.84c-1.16,5.94-2.4,11.85-3.6,17.78
			c-1.27,5.91-2.51,11.83-3.82,17.74l-1.99,8.85c-0.7,2.94-1.37,5.89-2.09,8.83c0.51-2.98,1.08-5.95,1.61-8.93l1.72-8.91
			c1.16-5.94,2.4-11.86,3.6-17.78c1.28-5.91,2.51-11.83,3.82-17.74C257.21,745.13,258.54,739.23,259.98,733.35z"/>
	</g>
	<g>
		<path class="st10" d="M246.82,734.6c-0.75,4.75-1.6,9.48-2.47,14.2c-0.87,4.73-1.82,9.43-2.73,14.15
			c-0.99,4.7-1.93,9.41-2.95,14.1l-1.56,7.04c-0.56,2.34-1.08,4.68-1.66,7.02c0.36-2.38,0.79-4.74,1.18-7.11l1.28-7.09
			c0.87-4.72,1.82-9.43,2.73-14.15c0.99-4.7,1.93-9.41,2.96-14.1C244.63,743.96,245.67,739.27,246.82,734.6z"/>
	</g>
	<g>
		<polygon class="st10" points="401.52,758.41 381.71,756.03 361.91,753.54 322.32,748.41 282.77,743.04 263.01,740.28 
			243.25,737.41 263.07,739.8 282.87,742.28 322.45,747.42 362.01,752.78 381.77,755.55 		"/>
	</g>
	<g>
		<polygon class="st10" points="398.12,768.06 378.26,765.81 358.41,763.47 318.74,758.61 279.09,753.53 259.27,750.9 
			239.47,748.18 259.34,750.42 279.18,752.77 318.86,757.62 358.51,762.71 378.32,765.33 		"/>
	</g>
	<g>
		<polygon class="st10" points="392.3,777.59 372.79,775.4 353.29,773.11 314.31,768.35 275.36,763.37 255.9,760.8 236.45,758.12 
			255.96,760.31 275.46,762.61 314.43,767.36 353.38,772.35 372.85,774.92 		"/>
	</g>
	<g>
		<polygon class="st10" points="385.42,787.26 366.64,785.08 347.88,782.79 310.37,778.06 272.9,773.09 254.17,770.52 
			235.46,767.86 254.23,770.04 273,772.33 310.5,777.06 347.98,782.03 366.71,784.6 		"/>
	</g>
	<g>
		<path class="st10" d="M381.64,795.64c-12.25-1.3-24.49-2.71-36.73-4.14l-36.7-4.4l-36.67-4.63l-18.32-2.4l-18.31-2.5l18.37,2.02
			l18.36,2.12l36.7,4.41l36.67,4.64C357.22,792.33,369.44,793.93,381.64,795.64z"/>
	</g>
	<g>
		<path class="st10" d="M374.8,804.52c-11.7-1.38-23.39-2.87-35.08-4.38l-35.04-4.64l-35.01-4.87l-17.49-2.52l-17.48-2.62
			l17.55,2.14l17.53,2.24l35.04,4.65l35.01,4.87C351.49,801.05,363.15,802.73,374.8,804.52z"/>
	</g>
	<g>
		<path class="st10" d="M364.73,811.45c-10.7-1.23-21.38-2.57-32.06-3.92l-32.03-4.19l-32-4.41l-15.99-2.29l-15.97-2.39l16.04,1.91
			l16.02,2.01l32.03,4.19l32,4.42C343.43,808.29,354.08,809.82,364.73,811.45z"/>
	</g>
	<g>
		<path class="st10" d="M344.45,817.01c-8.3-0.72-16.58-1.54-24.87-2.39l-24.84-2.65l-24.81-2.88l-12.4-1.52l-12.38-1.63l12.44,1.14
			l12.43,1.24l24.84,2.65l24.81,2.88C327.93,814.86,336.2,815.88,344.45,817.01z"/>
	</g>
	<path class="st2" d="M1097.18,848.76h-35.01c-3.31,0-6-2.69-6-6l0,0c0-3.31,2.69-6,6-6h35.01c3.31,0,6,2.69,6,6l0,0
		C1103.18,846.08,1100.5,848.76,1097.18,848.76z"/>
	<path class="st2" d="M289.31,848.76h-35.01c-3.31,0-6-2.69-6-6l0,0c0-3.31,2.69-6,6-6h35.01c3.31,0,6,2.69,6,6l0,0
		C295.31,846.08,292.62,848.76,289.31,848.76z"/>
	<polygon class="st7" points="413.58,839.66 440.4,815.66 911.93,815.66 940.64,842.13 	"/>
	<polygon class="st10" points="549.12,822.88 551.47,842.76 564.18,842.76 566.06,822.88 	"/>
	<polygon class="st10" points="680.04,822.88 682.4,842.76 695.1,842.76 696.98,822.88 	"/>
	<polygon class="st10" points="811.81,822.88 814.16,842.76 826.87,842.76 828.75,822.88 	"/>
	<g>
		<polygon class="st27" points="432.11,822.88 492.86,822.4 553.62,822.12 675.13,821.88 796.64,822.11 857.39,822.39 
			918.14,822.88 857.39,823.37 796.64,823.65 675.13,823.88 553.62,823.65 492.86,823.37 		"/>
	</g>
</g>
<g id="Слой_2">
	<path class="st10" d="M358.24,421.66l41.25-67.76c10.18-16.72,14.04-24.11,47.92-26.93c0,0,336.43-18.8,472.54-2.92
		c15.65,1.83,21.75,11.29,29.68,24.9l39.76,68.24c4.34,7.44,11.53,18.58-9.6,16.86l-611.88,4.65
		C359.12,438.77,353.67,429.17,358.24,421.66z"/>
	<path class="st28" d="M986.76,435.12H364.44c-4.42,0-8.01-3.59-8.01-8.01l0,0c0-1.97,1.59-3.56,3.56-3.56h630.75
		c1.96,0,3.55,1.59,3.55,3.55v0.49C994.29,431.75,990.92,435.12,986.76,435.12z"/>
	<path class="st9" d="M555.94,435.12l33.18,0.24c0,0,4.47-1.69,6.35-6.02c1.88-4.33-1.65-28.33-7.06-32.8
		c-5.41-4.47-12.71-6.35-21.18-6.82c-8.47-0.47-8.47-0.47-8.47-0.47L555.94,435.12z"/>
	<path class="st9" d="M794.88,435.12l-33.18,0.24c0,0-4.47-1.69-6.35-6.02c-1.88-4.33,1.65-28.33,7.06-32.8
		c5.41-4.47,12.71-6.35,21.18-6.82c8.47-0.47,8.47-0.47,8.47-0.47L794.88,435.12z"/>
	<path class="st7" d="M467.53,435.35c0,0-8.24,1.84-12.47-6.02s-1.18-30.21,3.53-43.63c4.71-13.41,9.41-19.53,24.71-21.88
		c15.29-2.35,46.59-3.53,64.47,3.06c17.88,6.59,19.29,38.82,20.47,45.41c1.18,6.59,1.91,15.29-1.88,18.82
		c-6.41,5.97-25.65,4-26.59,4S467.53,435.35,467.53,435.35z"/>
	<path class="st7" d="M799,435.35c0,0-8.24,1.84-12.47-6.02s-1.18-30.21,3.53-43.63c4.71-13.41,9.41-19.53,24.71-21.88
		c15.29-2.35,46.59-3.53,64.47,3.06c17.88,6.59,19.29,38.82,20.47,45.41c1.18,6.59,1.41,14.82-1.88,18.82c-3.29,4-25.65,4-26.59,4
		S799,435.35,799,435.35z"/>
	<path class="st7" d="M720.08,365.94h-88.63c-5.9,0-9.87-6.05-7.52-11.47l5.76-13.25c1.3-2.99,4.26-4.93,7.52-4.93h77.25
		c3.29,0,6.26,1.97,7.55,5l5.62,13.25C729.92,359.95,725.95,365.94,720.08,365.94z"/>
	<rect x="672.76" y="328.18" class="st7" width="5.12" height="9.35"/>
	<path class="st7" d="M1019.79,437.93L949.07,316.4c-0.85-1.46-2.38-2.4-4.07-2.48c-25.13-1.28-218.15-11.03-267.12-11.03
		c-48.95,0-246.43,7.8-272.31,8.83c-1.75,0.07-3.32,1.04-4.17,2.57l-72.05,126.01c-1.85,3.34,2.31,8,6.13,8h678.35
		C1019.15,448.29,1022.47,442.53,1019.79,437.93z M987.91,435.12H361.06c-3.53,0-8.18-2.68-4.64-8.01l51.04-86.58
		c2.07-4.24,5.65-8.12,19.76-10.35c23.64-3.73,205-9.41,250.23-9.41c45.25,0,216.12-1.91,256.59,12.09
		c8.23,2.85,11.92,10.29,12.71,11.44l46.66,82.67C995.89,430.58,992.83,435.12,987.91,435.12z"/>
	<path class="st7" d="M633.41,318.29c0,0,3,6.88,9.53,9.88s61.24,2.29,66.53,1.06s8.65-9.88,8.65-9.88L633.41,318.29z"/>
	<path class="st29" d="M527.25,397.78c0.53-0.14,1.05-0.28,1.58-0.41c14.85-30.49,21.35-49.73,32.29-73.87l-115.78,5.04
		c-35.55,1.07-36.22,7.76-47.51,28.23l-40.47,68.94c-3.76,8.22-0.92,10.82,3.71,9.41C378.42,429.12,507.32,402.97,527.25,397.78z"/>
</g>
</svg>
