<svg width="40" height="40" viewBox="0 0 40 40" fill="none" xmlns="http://www.w3.org/2000/svg">
<g clip-path="url(#clip0_5_62)">
<path d="M11.4283 4.07499C13.3333 5.46333 14.8167 7.35833 16.0833 9.17166L16.82 10.245L17.515 11.27C17.8626 11.7779 18.0113 12.3959 17.9326 13.0063C17.8539 13.6167 17.5534 14.1769 17.0883 14.58L13.8367 16.995C13.6796 17.1084 13.569 17.275 13.5255 17.4639C13.4819 17.6527 13.5084 17.8509 13.6 18.0217C14.3367 19.36 15.6467 21.3533 17.1467 22.8533C18.6483 24.3533 20.735 25.75 22.1667 26.57C22.3462 26.6708 22.5575 26.6989 22.7571 26.6487C22.9567 26.5985 23.1295 26.4737 23.24 26.3L25.3567 23.0783C25.7458 22.5614 26.3199 22.2151 26.9586 22.112C27.5974 22.0088 28.2513 22.1568 28.7833 22.525L29.8883 23.29C31.9533 24.7233 34.1717 26.3517 35.8683 28.5233C36.1374 28.8697 36.3086 29.2819 36.364 29.7169C36.4194 30.152 36.357 30.5939 36.1833 30.9967C34.7883 34.2517 31.2583 37.0233 27.5867 36.8883L27.0867 36.86L26.6983 36.8267L26.2683 36.7767L25.8 36.7133L25.2917 36.63C25.2027 36.6139 25.1138 36.5973 25.025 36.58L24.465 36.46C24.3671 36.4385 24.2693 36.4163 24.1717 36.3933L23.5617 36.2367L22.92 36.0533L22.25 35.8367C19.1733 34.7933 15.2683 32.7433 11.2617 28.7367C7.25666 24.7317 5.20666 20.8267 4.16333 17.75L3.94666 17.08L3.76333 16.4383L3.60666 15.8283L3.47666 15.2517C3.43911 15.071 3.40411 14.8899 3.37166 14.7083L3.28833 14.2L3.22166 13.7317L3.17333 13.3017L3.13999 12.9133L3.11333 12.4133C2.97833 8.75333 5.77999 5.19833 9.01999 3.80999C9.40996 3.6416 9.837 3.57749 10.2592 3.62395C10.6814 3.67041 11.0843 3.82584 11.4283 4.07499ZM24.9867 10.0667L25.18 10.0883C26.3932 10.3023 27.5075 10.8949 28.3631 11.7811C29.2188 12.6673 29.772 13.8017 29.9433 15.0217C30.0044 15.4436 29.9015 15.873 29.6557 16.2213C29.4098 16.5697 29.0399 16.8106 28.6218 16.8945C28.2038 16.9784 27.7695 16.8989 27.4083 16.6724C27.0471 16.4459 26.7865 16.0895 26.68 15.6767L26.6417 15.485C26.5746 15.0068 26.3705 14.5583 26.054 14.1936C25.7376 13.829 25.3223 13.5637 24.8583 13.43L24.6 13.3717C24.1815 13.2975 23.8071 13.0662 23.5535 12.7252C23.2999 12.3841 23.1861 11.959 23.2355 11.5369C23.2849 11.1148 23.4937 10.7274 23.8192 10.4541C24.1447 10.1808 24.5623 10.0422 24.9867 10.0667ZM25 4.99999C27.6522 4.99999 30.1957 6.05356 32.0711 7.92893C33.9464 9.80429 35 12.3478 35 15C34.9995 15.4248 34.8369 15.8334 34.5452 16.1423C34.2536 16.4512 33.8551 16.6371 33.431 16.6619C33.0069 16.6868 32.5894 16.5489 32.2636 16.2762C31.9379 16.0036 31.7285 15.6168 31.6783 15.195L31.6667 15C31.6673 13.3074 31.0237 11.6779 29.8666 10.4425C28.7096 9.20715 27.1257 8.4584 25.4367 8.34833L25 8.33333C24.558 8.33333 24.134 8.15773 23.8215 7.84517C23.5089 7.53261 23.3333 7.10869 23.3333 6.66666C23.3333 6.22463 23.5089 5.80071 23.8215 5.48815C24.134 5.17559 24.558 4.99999 25 4.99999Z" fill="#5C1010"/>
</g>
<defs>
<clipPath id="clip0_5_62">
<path d="M0 0H20C31.0457 0 40 8.95431 40 20C40 31.0457 31.0457 40 20 40H0V0Z" fill="white"/>
</clipPath>
</defs>
</svg>
