<svg width="20" height="20" viewBox="0 0 80 80" fill="none" xmlns="http://www.w3.org/2000/svg">
<path d="M36.6667 46.6667H43.3333V36.6667H53.3333V30H43.3333V20H36.6667V30H26.6667V36.6667H36.6667V46.6667ZM40 73.3333C31.0555 65.7222 24.3755 58.6522 19.96 52.1233C15.5422 45.5967 13.3333 39.5556 13.3333 34C13.3333 25.6667 16.0144 19.0278 21.3767 14.0833C26.7367 9.13889 32.9444 6.66667 40 6.66667C47.0555 6.66667 53.2633 9.13889 58.6233 14.0833C63.9855 19.0278 66.6667 25.6667 66.6667 34C66.6667 39.5556 64.4589 45.5967 60.0433 52.1233C55.6256 58.6522 48.9444 65.7222 40 73.3333Z" fill="#fff"/>
</svg>
