<svg width="44" height="45" viewBox="0 0 44 45" fill="none" xmlns="http://www.w3.org/2000/svg">
<g clip-path="url(#clip0_5_58)">
<path d="M0.938933 21.9065C0.937902 25.6322 1.9114 29.2701 3.7625 32.4766L0.761902 43.4323L11.9737 40.4926C15.0747 42.1807 18.5491 43.0653 22.0799 43.0655H22.0892C33.7449 43.0655 43.2329 33.5809 43.2379 21.9232C43.2401 16.2742 41.0422 10.9622 37.0488 6.96575C33.0562 2.96966 27.7461 0.767768 22.0883 0.76519C10.4312 0.76519 0.943917 10.2493 0.939105 21.9065" fill="url(#paint0_linear_5_58)"/>
<path d="M0.183906 21.8996C0.182703 25.7594 1.19109 29.5274 3.10819 32.8487L0 44.1971L11.6138 41.152C14.8137 42.8967 18.4166 43.8166 22.0827 43.818H22.0921C34.166 43.818 43.9948 33.9922 44 21.9172C44.0021 16.0652 41.7251 10.5622 37.5891 6.42263C33.4525 2.28353 27.9525 0.00240625 22.0921 0C10.0162 0 0.188891 9.82438 0.184078 21.8996H0.183906ZM7.10016 32.2768L6.66652 31.5884C4.84361 28.6899 3.88145 25.3404 3.88283 21.901C3.88678 11.8644 12.055 3.69875 22.099 3.69875C26.9631 3.70081 31.5343 5.59694 34.9724 9.03719C38.4105 12.4778 40.3023 17.0514 40.3011 21.9158C40.2966 31.9524 32.1283 40.1191 22.0921 40.1191H22.0849C18.817 40.1173 15.6121 39.2397 12.8171 37.5813L12.1519 37.1869L5.26006 38.9938L7.10016 32.2766V32.2768Z" fill="url(#paint1_linear_5_58)"/>
<path d="M16.6166 12.7442C16.2065 11.8327 15.7749 11.8143 15.3849 11.7984C15.0656 11.7846 14.7005 11.7856 14.3358 11.7856C13.9707 11.7856 13.3776 11.923 12.8762 12.4704C12.3743 13.0183 10.9601 14.3425 10.9601 17.0356C10.9601 19.7288 12.9218 22.3315 13.1952 22.6971C13.469 23.062 16.9821 28.7655 22.5461 30.9597C27.1702 32.7831 28.1112 32.4204 29.1148 32.329C30.1185 32.2379 32.3536 31.0052 32.8096 29.727C33.2659 28.4489 33.2659 27.3534 33.1291 27.1245C32.9923 26.8964 32.6272 26.7594 32.0798 26.4858C31.5322 26.212 28.841 24.8877 28.3393 24.705C27.8374 24.5224 27.4725 24.4313 27.1075 24.9795C26.7424 25.5267 25.6941 26.7594 25.3746 27.1245C25.0554 27.4904 24.7359 27.5359 24.1887 27.2621C23.6409 26.9875 21.878 26.4101 19.7864 24.5455C18.1591 23.0945 17.0605 21.3027 16.7412 20.7546C16.4218 20.2073 16.707 19.9107 16.9814 19.6379C17.2274 19.3927 17.529 18.9987 17.803 18.6792C18.0759 18.3595 18.167 18.1314 18.3496 17.7664C18.5323 17.401 18.4408 17.0813 18.3042 16.8075C18.167 16.5337 17.1033 13.8267 16.6166 12.7444" fill="white"/>
</g>
<defs>
<linearGradient id="paint0_linear_5_58" x1="21.9999" y1="43.4323" x2="21.9999" y2="0.76519" gradientUnits="userSpaceOnUse">
<stop stop-color="#1FAF38"/>
<stop offset="1" stop-color="#60D669"/>
</linearGradient>
<linearGradient id="paint1_linear_5_58" x1="22" y1="44.1971" x2="22" y2="0" gradientUnits="userSpaceOnUse">
<stop stop-color="#F9F9F9"/>
<stop offset="1" stop-color="white"/>
</linearGradient>
<clipPath id="clip0_5_58">
<path d="M0 0H24C35.0457 0 44 8.95431 44 20V24.3438C44 35.3894 35.0457 44.3438 24 44.3438H0V0Z" fill="white"/>
</clipPath>
</defs>
</svg>
